<?xml version="1.0" encoding="utf-8"?>
<svg version="1.1" xmlns:xlink="http://www.w3.org/1999/xlink" width="150px" height="112px" xmlns="http://www.w3.org/2000/svg">
  <g transform="matrix(1 0 0 1 -250 -329 )">
    <path d="M 250 329  L 400 329  L 400 441  L 250 441  L 250 329  " fill-rule="nonzero" fill="#cccccc" stroke="none" />
    <path d="M 258 337  L 392 337  L 392 433  L 258 433  L 258 337  " fill-rule="nonzero" fill="#ffffff" stroke="none" />
    <path d="M 336.4 362.6  C 331.696 362.6  328 358.904  328 354.2  C 328 349.496  331.696 345.8  336.4 345.8  C 341.104 345.8  344.8 349.496  344.8 354.2  C 344.8 358.904  341.104 362.6  336.4 362.6  " fill-rule="nonzero" fill="#cccccc" stroke="none" />
    <path d="M 261 430  L 261 380.5  L 293 358  L 337.8 389.68  L 363.4 371.5  L 389 389.68  L 389 430  L 261 430  " fill-rule="nonzero" fill="#169bd5" stroke="none" />
  </g>
</svg>