<?xml version="1.0" encoding="utf-8"?>
<svg version="1.1" xmlns:xlink="http://www.w3.org/1999/xlink" width="104px" height="104px" xmlns="http://www.w3.org/2000/svg">
  <defs>
    <mask fill="white" id="clip67">
      <path d="M 0 100  L 0 0  L 100 0  L 100 100  L 0 100  Z " fill-rule="evenodd" />
    </mask>
  </defs>
  <g transform="matrix(1 0 0 1 -248.5 -327.5 )">
    <path d="M 0 100  L 0 0  L 100 0  L 100 100  L 0 100  Z " fill-rule="nonzero" fill="#ffffff" stroke="none" fill-opacity="0" transform="matrix(1 0 0 1 250 329 )" />
    <path d="M 0 100  L 0 0  L 100 0  L 100 100  L 0 100  Z " stroke-width="6" stroke="#797979" fill="none" transform="matrix(1 0 0 1 250 329 )" mask="url(#clip67)" />
    <path d="M 26 50.5  L 76 50.5  M 50.5 26  L 50.5 76  " stroke-width="3" stroke="#797979" fill="none" transform="matrix(1 0 0 1 250 329 )" mask="url(#clip67)" />
  </g>
</svg>