<?xml version="1.0" encoding="utf-8"?>
<svg version="1.1" xmlns:xlink="http://www.w3.org/1999/xlink" width="12px" height="12px" viewBox="485 145.5  12 12" xmlns="http://www.w3.org/2000/svg">
  <path d="M 491 145.5  C 494.36 145.5  497 148.14  497 151.5  C 497 154.86  494.36 157.5  491 157.5  C 487.64 157.5  485 154.86  485 151.5  C 485 148.14  487.64 145.5  491 145.5  Z " fill-rule="nonzero" fill="#f0f0f0" stroke="none" />
  <path d="M 491 146  C 494.08 146  496.5 148.42  496.5 151.5  C 496.5 154.58  494.08 157  491 157  C 487.92 157  485.5 154.58  485.5 151.5  C 485.5 148.42  487.92 146  491 146  Z " stroke-width="1" stroke="#797979" fill="none" />
  <path d="M 491 154.5  C 489.32 154.5  488 153.18  488 151.5  C 488 149.82  489.32 148.5  491 148.5  C 492.68 148.5  494 149.82  494 151.5  C 494 153.18  492.68 154.5  491 154.5  " fill-rule="nonzero" fill="#797979" stroke="none" />
</svg>