<?xml version="1.0" encoding="utf-8"?>
<svg version="1.1" xmlns:xlink="http://www.w3.org/1999/xlink" width="12px" height="12px" viewBox="315 145.5  12 12" xmlns="http://www.w3.org/2000/svg">
  <path d="M 321 145.5  C 324.36 145.5  327 148.14  327 151.5  C 327 154.86  324.36 157.5  321 157.5  C 317.64 157.5  315 154.86  315 151.5  C 315 148.14  317.64 145.5  321 145.5  Z " fill-rule="nonzero" fill="#f0f0f0" stroke="none" />
  <path d="M 321 146  C 324.08 146  326.5 148.42  326.5 151.5  C 326.5 154.58  324.08 157  321 157  C 317.92 157  315.5 154.58  315.5 151.5  C 315.5 148.42  317.92 146  321 146  Z " stroke-width="1" stroke="#797979" fill="none" />
  <path d="M 321 154.5  C 319.32 154.5  318 153.18  318 151.5  C 318 149.82  319.32 148.5  321 148.5  C 322.68 148.5  324 149.82  324 151.5  C 324 153.18  322.68 154.5  321 154.5  " fill-rule="nonzero" fill="#797979" stroke="none" />
</svg>