<?xml version="1.0" encoding="utf-8"?>
<svg version="1.1" xmlns:xlink="http://www.w3.org/1999/xlink" width="12px" height="12px" viewBox="176 391  12 12" xmlns="http://www.w3.org/2000/svg">
  <path d="M 182 391  C 185.36 391  188 393.64  188 397  C 188 400.36  185.36 403  182 403  C 178.64 403  176 400.36  176 397  C 176 393.64  178.64 391  182 391  Z " fill-rule="nonzero" fill="#f0f0f0" stroke="none" />
  <path d="M 182 391.5  C 185.08 391.5  187.5 393.92  187.5 397  C 187.5 400.08  185.08 402.5  182 402.5  C 178.92 402.5  176.5 400.08  176.5 397  C 176.5 393.92  178.92 391.5  182 391.5  Z " stroke-width="1" stroke="#797979" fill="none" />
  <path d="M 182 400  C 180.32 400  179 398.68  179 397  C 179 395.32  180.32 394  182 394  C 183.68 394  185 395.32  185 397  C 185 398.68  183.68 400  182 400  " fill-rule="nonzero" fill="#797979" stroke="none" />
</svg>