<?xml version="1.0" encoding="utf-8"?>
<svg version="1.1" xmlns:xlink="http://www.w3.org/1999/xlink" width="12px" height="12px" viewBox="262 386  12 12" xmlns="http://www.w3.org/2000/svg">
  <path d="M 268 386  C 271.36 386  274 388.64  274 392  C 274 395.36  271.36 398  268 398  C 264.64 398  262 395.36  262 392  C 262 388.64  264.64 386  268 386  Z " fill-rule="nonzero" fill="#ffffff" stroke="none" />
  <path d="M 268 386.5  C 271.08 386.5  273.5 388.92  273.5 392  C 273.5 395.08  271.08 397.5  268 397.5  C 264.92 397.5  262.5 395.08  262.5 392  C 262.5 388.92  264.92 386.5  268 386.5  Z " stroke-width="1" stroke="#797979" fill="none" />
  <path d="M 268 395  C 266.32 395  265 393.68  265 392  C 265 390.32  266.32 389  268 389  C 269.68 389  271 390.32  271 392  C 271 393.68  269.68 395  268 395  " fill-rule="nonzero" fill="#797979" stroke="none" />
</svg>