<?xml version="1.0" encoding="utf-8"?>
<svg version="1.1" xmlns:xlink="http://www.w3.org/1999/xlink" width="12px" height="12px" viewBox="485 186.5  12 12" xmlns="http://www.w3.org/2000/svg">
  <path d="M 491 186.5  C 494.36 186.5  497 189.14  497 192.5  C 497 195.86  494.36 198.5  491 198.5  C 487.64 198.5  485 195.86  485 192.5  C 485 189.14  487.64 186.5  491 186.5  Z " fill-rule="nonzero" fill="#f0f0f0" stroke="none" />
  <path d="M 491 187  C 494.08 187  496.5 189.42  496.5 192.5  C 496.5 195.58  494.08 198  491 198  C 487.92 198  485.5 195.58  485.5 192.5  C 485.5 189.42  487.92 187  491 187  Z " stroke-width="1" stroke="#797979" fill="none" />
  <path d="M 491 195.5  C 489.32 195.5  488 194.18  488 192.5  C 488 190.82  489.32 189.5  491 189.5  C 492.68 189.5  494 190.82  494 192.5  C 494 194.18  492.68 195.5  491 195.5  " fill-rule="nonzero" fill="#797979" stroke="none" />
</svg>