<?xml version="1.0" encoding="utf-8"?>
<svg version="1.1" xmlns:xlink="http://www.w3.org/1999/xlink" width="101px" height="101px" xmlns="http://www.w3.org/2000/svg">
  <defs>
    <mask fill="white" id="clip1461">
      <path d="M 0 0  L 100 0  L 100 100  L 0 100  L 0 0  Z " fill-rule="evenodd" />
    </mask>
  </defs>
  <g transform="matrix(1 0 0 1 -315 -226 )">
    <path d="M 0 0  L 100 0  L 100 100  L 0 100  L 0 0  Z " fill-rule="nonzero" fill="#ffffff" stroke="none" transform="matrix(1 0 0 1 315 226 )" />
    <path d="M 0 0  L 100 0  L 100 100  L 0 100  L 0 0  Z " stroke-width="2" stroke="#797979" fill="none" transform="matrix(1 0 0 1 315 226 )" mask="url(#clip1461)" />
    <path d="M 25 50.5  L 75 50.5  M 50.5 25  L 50.5 75  " stroke-width="1" stroke="#797979" fill="none" transform="matrix(1 0 0 1 315 226 )" mask="url(#clip1461)" />
  </g>
</svg>