<?xml version="1.0" encoding="utf-8"?>
<svg version="1.1" xmlns:xlink="http://www.w3.org/1999/xlink" width="12px" height="12px" viewBox="315 186.5  12 12" xmlns="http://www.w3.org/2000/svg">
  <path d="M 321 186.5  C 324.36 186.5  327 189.14  327 192.5  C 327 195.86  324.36 198.5  321 198.5  C 317.64 198.5  315 195.86  315 192.5  C 315 189.14  317.64 186.5  321 186.5  Z " fill-rule="nonzero" fill="#ffffff" stroke="none" />
  <path d="M 321 187  C 324.08 187  326.5 189.42  326.5 192.5  C 326.5 195.58  324.08 198  321 198  C 317.92 198  315.5 195.58  315.5 192.5  C 315.5 189.42  317.92 187  321 187  Z " stroke-width="1" stroke="#797979" fill="none" />
  <path d="M 321 195.5  C 319.32 195.5  318 194.18  318 192.5  C 318 190.82  319.32 189.5  321 189.5  C 322.68 189.5  324 190.82  324 192.5  C 324 194.18  322.68 195.5  321 195.5  " fill-rule="nonzero" fill="#797979" stroke="none" />
</svg>