<?xml version="1.0" encoding="utf-8"?>
<svg version="1.1" xmlns:xlink="http://www.w3.org/1999/xlink" width="12px" height="12px" viewBox="176 429  12 12" xmlns="http://www.w3.org/2000/svg">
  <path d="M 182 429  C 185.36 429  188 431.64  188 435  C 188 438.36  185.36 441  182 441  C 178.64 441  176 438.36  176 435  C 176 431.64  178.64 429  182 429  Z " fill-rule="nonzero" fill="#f0f0f0" stroke="none" />
  <path d="M 182 429.5  C 185.08 429.5  187.5 431.92  187.5 435  C 187.5 438.08  185.08 440.5  182 440.5  C 178.92 440.5  176.5 438.08  176.5 435  C 176.5 431.92  178.92 429.5  182 429.5  Z " stroke-width="1" stroke="#797979" fill="none" />
  <path d="M 182 438  C 180.32 438  179 436.68  179 435  C 179 433.32  180.32 432  182 432  C 183.68 432  185 433.32  185 435  C 185 436.68  183.68 438  182 438  " fill-rule="nonzero" fill="#797979" stroke="none" />
</svg>