<?xml version="1.0" encoding="utf-8"?>
<svg version="1.1" xmlns:xlink="http://www.w3.org/1999/xlink" width="12px" height="12px" viewBox="177 387  12 12" xmlns="http://www.w3.org/2000/svg">
  <path d="M 183 387  C 186.36 387  189 389.64  189 393  C 189 396.36  186.36 399  183 399  C 179.64 399  177 396.36  177 393  C 177 389.64  179.64 387  183 387  Z " fill-rule="nonzero" fill="#ffffff" stroke="none" />
  <path d="M 183 387.5  C 186.08 387.5  188.5 389.92  188.5 393  C 188.5 396.08  186.08 398.5  183 398.5  C 179.92 398.5  177.5 396.08  177.5 393  C 177.5 389.92  179.92 387.5  183 387.5  Z " stroke-width="1" stroke="#797979" fill="none" />
  <path d="M 183 396  C 181.32 396  180 394.68  180 393  C 180 391.32  181.32 390  183 390  C 184.68 390  186 391.32  186 393  C 186 394.68  184.68 396  183 396  " fill-rule="nonzero" fill="#797979" stroke="none" />
</svg>