<?xml version="1.0" encoding="utf-8"?>
<svg version="1.1" xmlns:xlink="http://www.w3.org/1999/xlink" width="12px" height="12px" viewBox="451 558.5  12 12" xmlns="http://www.w3.org/2000/svg">
  <path d="M 457 558.5  C 460.36 558.5  463 561.14  463 564.5  C 463 567.86  460.36 570.5  457 570.5  C 453.64 570.5  451 567.86  451 564.5  C 451 561.14  453.64 558.5  457 558.5  Z " fill-rule="nonzero" fill="#ffffff" stroke="none" />
  <path d="M 457 559  C 460.08 559  462.5 561.42  462.5 564.5  C 462.5 567.58  460.08 570  457 570  C 453.92 570  451.5 567.58  451.5 564.5  C 451.5 561.42  453.92 559  457 559  Z " stroke-width="1" stroke="#797979" fill="none" />
  <path d="M 457 567.5  C 455.32 567.5  454 566.18  454 564.5  C 454 562.82  455.32 561.5  457 561.5  C 458.68 561.5  460 562.82  460 564.5  C 460 566.18  458.68 567.5  457 567.5  " fill-rule="nonzero" fill="#797979" stroke="none" />
</svg>