<?xml version="1.0" encoding="utf-8"?>
<svg version="1.1" xmlns:xlink="http://www.w3.org/1999/xlink" width="12px" height="12px" viewBox="283 558.5  12 12" xmlns="http://www.w3.org/2000/svg">
  <path d="M 289 558.5  C 292.36 558.5  295 561.14  295 564.5  C 295 567.86  292.36 570.5  289 570.5  C 285.64 570.5  283 567.86  283 564.5  C 283 561.14  285.64 558.5  289 558.5  Z " fill-rule="nonzero" fill="#ffffff" stroke="none" />
  <path d="M 289 559  C 292.08 559  294.5 561.42  294.5 564.5  C 294.5 567.58  292.08 570  289 570  C 285.92 570  283.5 567.58  283.5 564.5  C 283.5 561.42  285.92 559  289 559  Z " stroke-width="1" stroke="#797979" fill="none" />
  <path d="M 289 567.5  C 287.32 567.5  286 566.18  286 564.5  C 286 562.82  287.32 561.5  289 561.5  C 290.68 561.5  292 562.82  292 564.5  C 292 566.18  290.68 567.5  289 567.5  " fill-rule="nonzero" fill="#797979" stroke="none" />
</svg>