<?xml version="1.0" encoding="utf-8"?>
<svg version="1.1" xmlns:xlink="http://www.w3.org/1999/xlink" width="12px" height="12px" viewBox="177 349  12 12" xmlns="http://www.w3.org/2000/svg">
  <path d="M 183 349  C 186.36 349  189 351.64  189 355  C 189 358.36  186.36 361  183 361  C 179.64 361  177 358.36  177 355  C 177 351.64  179.64 349  183 349  Z " fill-rule="nonzero" fill="#f0f0f0" stroke="none" />
  <path d="M 183 349.5  C 186.08 349.5  188.5 351.92  188.5 355  C 188.5 358.08  186.08 360.5  183 360.5  C 179.92 360.5  177.5 358.08  177.5 355  C 177.5 351.92  179.92 349.5  183 349.5  Z " stroke-width="1" stroke="#797979" fill="none" />
  <path d="M 183 358  C 181.32 358  180 356.68  180 355  C 180 353.32  181.32 352  183 352  C 184.68 352  186 353.32  186 355  C 186 356.68  184.68 358  183 358  " fill-rule="nonzero" fill="#797979" stroke="none" />
</svg>