<?xml version="1.0" encoding="utf-8"?>
<svg version="1.1" xmlns:xlink="http://www.w3.org/1999/xlink" width="12px" height="12px" viewBox="283 126.5  12 12" xmlns="http://www.w3.org/2000/svg">
  <path d="M 289 126.5  C 292.36 126.5  295 129.14  295 132.5  C 295 135.86  292.36 138.5  289 138.5  C 285.64 138.5  283 135.86  283 132.5  C 283 129.14  285.64 126.5  289 126.5  Z " fill-rule="nonzero" fill="#f0f0f0" stroke="none" />
  <path d="M 289 127  C 292.08 127  294.5 129.42  294.5 132.5  C 294.5 135.58  292.08 138  289 138  C 285.92 138  283.5 135.58  283.5 132.5  C 283.5 129.42  285.92 127  289 127  Z " stroke-width="1" stroke="#797979" fill="none" />
  <path d="M 289 135.5  C 287.32 135.5  286 134.18  286 132.5  C 286 130.82  287.32 129.5  289 129.5  C 290.68 129.5  292 130.82  292 132.5  C 292 134.18  290.68 135.5  289 135.5  " fill-rule="nonzero" fill="#797979" stroke="none" />
</svg>