<?xml version="1.0" encoding="utf-8"?>
<svg version="1.1" xmlns:xlink="http://www.w3.org/1999/xlink" width="150px" height="150px" xmlns="http://www.w3.org/2000/svg">
  <g transform="matrix(1 0 0 1 -362 -204 )">
    <path d="M 97.265625 88.4765625  C 103.841145833333 93.2942708333333  108.333333333333 99.6419270833333  110.7421875 107.51953125  C 111.263020833333 109.147135416667  111.1328125 110.725911458333  110.3515625 112.255859375  C 109.5703125 113.785807291667  108.365885416667 114.811197916667  106.73828125 115.33203125  C 105.110677083333 115.852864583333  103.515625 115.72265625  101.953125 114.94140625  C 100.390625 114.16015625  99.3489583333333 112.923177083333  98.828125 111.23046875  C 97.2005208333333 106.022135416667  94.189453125 101.806640625  89.794921875 98.583984375  C 85.400390625 95.361328125  80.46875 93.75  75 93.75  C 69.53125 93.75  64.599609375 95.361328125  60.205078125 98.583984375  C 55.810546875 101.806640625  52.7994791666667 106.022135416667  51.171875 111.23046875  C 50.6510416666667 112.923177083333  49.6256510416667 114.16015625  48.095703125 114.94140625  C 46.5657552083333 115.72265625  44.9869791666667 115.852864583333  43.359375 115.33203125  C 41.6666666666667 114.811197916667  40.4296875 113.785807291667  39.6484375 112.255859375  C 38.8671875 110.725911458333  38.7369791666667 109.147135416667  39.2578125 107.51953125  C 41.6666666666667 99.6419270833333  46.1588541666667 93.2942708333333  52.734375 88.4765625  C 59.3098958333333 83.6588541666667  66.7317708333333 81.25  75 81.25  C 83.2682291666667 81.25  90.6901041666667 83.6588541666667  97.265625 88.4765625  Z M 58.837890625 41.162109375  C 61.279296875 43.603515625  62.5 46.5494791666667  62.5 50  C 62.5 53.4505208333333  61.279296875 56.396484375  58.837890625 58.837890625  C 56.396484375 61.279296875  53.4505208333333 62.5  50 62.5  C 46.5494791666667 62.5  43.603515625 61.279296875  41.162109375 58.837890625  C 38.720703125 56.396484375  37.5 53.4505208333333  37.5 50  C 37.5 46.5494791666667  38.720703125 43.603515625  41.162109375 41.162109375  C 43.603515625 38.720703125  46.5494791666667 37.5  50 37.5  C 53.4505208333333 37.5  56.396484375 38.720703125  58.837890625 41.162109375  Z M 108.837890625 41.162109375  C 111.279296875 43.603515625  112.5 46.5494791666667  112.5 50  C 112.5 53.4505208333333  111.279296875 56.396484375  108.837890625 58.837890625  C 106.396484375 61.279296875  103.450520833333 62.5  100 62.5  C 96.5494791666667 62.5  93.603515625 61.279296875  91.162109375 58.837890625  C 88.720703125 56.396484375  87.5 53.4505208333333  87.5 50  C 87.5 46.5494791666667  88.720703125 43.603515625  91.162109375 41.162109375  C 93.603515625 38.720703125  96.5494791666667 37.5  100 37.5  C 103.450520833333 37.5  106.396484375 38.720703125  108.837890625 41.162109375  Z M 132.51953125 99.267578125  C 135.83984375 91.552734375  137.5 83.4635416666667  137.5 75  C 137.5 66.5364583333333  135.83984375 58.447265625  132.51953125 50.732421875  C 129.19921875 43.017578125  124.755859375 36.376953125  119.189453125 30.810546875  C 113.623046875 25.244140625  106.982421875 20.80078125  99.267578125 17.48046875  C 91.552734375 14.16015625  83.4635416666667 12.5  75 12.5  C 66.5364583333333 12.5  58.447265625 14.16015625  50.732421875 17.48046875  C 43.017578125 20.80078125  36.376953125 25.244140625  30.810546875 30.810546875  C 25.244140625 36.376953125  20.80078125 43.017578125  17.48046875 50.732421875  C 14.16015625 58.447265625  12.5 66.5364583333333  12.5 75  C 12.5 83.4635416666667  14.16015625 91.552734375  17.48046875 99.267578125  C 20.80078125 106.982421875  25.244140625 113.623046875  30.810546875 119.189453125  C 36.376953125 124.755859375  43.017578125 129.19921875  50.732421875 132.51953125  C 58.447265625 135.83984375  66.5364583333333 137.5  75 137.5  C 83.4635416666667 137.5  91.552734375 135.83984375  99.267578125 132.51953125  C 106.982421875 129.19921875  113.623046875 124.755859375  119.189453125 119.189453125  C 124.755859375 113.623046875  129.19921875 106.982421875  132.51953125 99.267578125  Z M 139.94140625 37.353515625  C 146.647135416667 48.8444010416667  150 61.3932291666666  150 75  C 150 88.6067708333333  146.647135416667 101.155598958333  139.94140625 112.646484375  C 133.235677083333 124.137369791667  124.137369791667 133.235677083333  112.646484375 139.94140625  C 101.155598958333 146.647135416667  88.6067708333333 150  75 150  C 61.3932291666667 150  48.8444010416667 146.647135416667  37.353515625 139.94140625  C 25.8626302083333 133.235677083333  16.7643229166667 124.137369791667  10.05859375 112.646484375  C 3.35286458333333 101.155598958333  0 88.6067708333333  0 75  C 0 61.3932291666666  3.35286458333333 48.8444010416667  10.05859375 37.353515625  C 16.7643229166667 25.8626302083333  25.8626302083333 16.7643229166667  37.353515625 10.05859375  C 48.8444010416667 3.35286458333332  61.3932291666667 0  75 0  C 88.6067708333333 0  101.155598958333 3.35286458333332  112.646484375 10.05859375  C 124.137369791667 16.7643229166667  133.235677083333 25.8626302083333  139.94140625 37.353515625  Z " fill-rule="nonzero" fill="#000000" stroke="none" transform="matrix(1 0 0 1 362 204 )" />
  </g>
</svg>