<?xml version="1.0" encoding="utf-8"?>
<svg version="1.1" xmlns:xlink="http://www.w3.org/1999/xlink" width="26px" height="26px" xmlns="http://www.w3.org/2000/svg">
  <g transform="matrix(1 0 0 1 -399 -241 )">
    <path d="M 412 241  C 419.28 241  425 246.72  425 254  C 425 261.28  419.28 267  412 267  C 404.72 267  399 261.28  399 254  C 399 246.72  404.72 241  412 241  Z " fill-rule="nonzero" fill="#ffffff" stroke="none" />
    <path d="M 412 241.5  C 419 241.5  424.5 247  424.5 254  C 424.5 261  419 266.5  412 266.5  C 405 266.5  399.5 261  399.5 254  C 399.5 247  405 241.5  412 241.5  Z " stroke-width="1" stroke="#ffffff" fill="none" />
  </g>
</svg>