<?xml version="1.0" encoding="utf-8"?>
<svg version="1.1" xmlns:xlink="http://www.w3.org/1999/xlink" width="30px" height="30px" xmlns="http://www.w3.org/2000/svg">
  <g transform="matrix(1 0 0 1 -396 -242 )">
    <path d="M 29.2929292929293 22.4242424242424  C 29.7643097643098 22.8956228956229  30 23.4680134680135  30 24.1414141414141  C 30 24.8148148148148  29.7643097643098 25.3872053872054  29.2929292929293 25.8585858585859  L 25.8585858585859 29.2929292929293  C 25.3872053872054 29.7643097643098  24.8148148148148 30  24.1414141414141 30  C 23.4680134680135 30  22.8956228956229 29.7643097643098  22.4242424242424 29.2929292929293  L 15 21.8686868686869  L 7.57575757575758 29.2929292929293  C 7.10437710437711 29.7643097643098  6.53198653198653 30  5.85858585858586 30  C 5.18518518518519 30  4.61279461279461 29.7643097643098  4.14141414141414 29.2929292929293  L 0.707070707070707 25.8585858585859  C 0.235690235690236 25.3872053872054  0 24.8148148148148  0 24.1414141414141  C 0 23.4680134680135  0.235690235690236 22.8956228956229  0.707070707070707 22.4242424242424  L 8.13131313131313 15  L 0.707070707070707 7.57575757575757  C 0.235690235690236 7.1043771043771  0 6.53198653198653  0 5.85858585858586  C 0 5.18518518518519  0.235690235690236 4.61279461279461  0.707070707070707 4.14141414141414  L 4.14141414141414 0.707070707070707  C 4.61279461279461 0.235690235690235  5.18518518518519 0  5.85858585858586 0  C 6.53198653198653 0  7.10437710437711 0.235690235690235  7.57575757575758 0.707070707070707  L 15 8.13131313131313  L 22.4242424242424 0.707070707070707  C 22.8956228956229 0.235690235690235  23.4680134680135 0  24.1414141414141 0  C 24.8148148148148 0  25.3872053872054 0.235690235690235  25.8585858585859 0.707070707070707  L 29.2929292929293 4.14141414141414  C 29.7643097643098 4.61279461279461  30 5.18518518518519  30 5.85858585858586  C 30 6.53198653198653  29.7643097643098 7.1043771043771  29.2929292929293 7.57575757575757  L 21.8686868686869 15  L 29.2929292929293 22.4242424242424  Z " fill-rule="nonzero" fill="#000000" stroke="none" transform="matrix(1 0 0 1 396 242 )" />
  </g>
</svg>