<?xml version="1.0" encoding="utf-8"?>
<svg version="1.1" xmlns:xlink="http://www.w3.org/1999/xlink" width="20px" height="20px" xmlns="http://www.w3.org/2000/svg">
  <g transform="matrix(1 0 0 1 -385 -410 )">
    <path d="M 19.4921875 0.8984375  C 19.8307291666667 1.04600694444444  20 1.30208333333333  20 1.66666666666667  L 20 7.5  C 20 7.72569444444444  19.9175347222222 7.92100694444444  19.7526041666667 8.0859375  C 19.5876736111111 8.25086805555556  19.3923611111111 8.33333333333333  19.1666666666667 8.33333333333333  L 13.3333333333333 8.33333333333333  C 12.96875 8.33333333333333  12.7126736111111 8.15972222222222  12.5651041666667 7.8125  C 12.4175347222222 7.47395833333333  12.4782986111111 7.17447916666667  12.7473958333333 6.9140625  L 14.5442708333333 5.1171875  C 13.2595486111111 3.92795138888889  11.7447916666667 3.33333333333333  10 3.33333333333333  C 9.09722222222222 3.33333333333333  8.23567708333333 3.50911458333333  7.41536458333333 3.86067708333333  C 6.59505208333333 4.21223958333333  5.88541666666667 4.6875  5.28645833333333 5.28645833333333  C 4.6875 5.88541666666667  4.21223958333333 6.59505208333333  3.86067708333333 7.41536458333333  C 3.50911458333333 8.23567708333333  3.33333333333333 9.09722222222222  3.33333333333333 10  C 3.33333333333333 10.9027777777778  3.50911458333333 11.7643229166667  3.86067708333333 12.5846354166667  C 4.21223958333333 13.4049479166667  4.6875 14.1145833333333  5.28645833333333 14.7135416666667  C 5.88541666666667 15.3125  6.59505208333333 15.7877604166667  7.41536458333333 16.1393229166667  C 8.23567708333333 16.4908854166667  9.09722222222222 16.6666666666667  10 16.6666666666667  C 11.0329861111111 16.6666666666667  12.0095486111111 16.4409722222222  12.9296875 15.9895833333333  C 13.8498263888889 15.5381944444444  14.6267361111111 14.9001736111111  15.2604166666667 14.0755208333333  C 15.3211805555556 13.9887152777778  15.4210069444444 13.9366319444444  15.5598958333333 13.9192708333333  C 15.6901041666667 13.9192708333333  15.7986111111111 13.9583333333333  15.8854166666667 14.0364583333333  L 17.6692708333333 15.8333333333333  C 17.7473958333333 15.9027777777778  17.7886284722222 15.9917534722222  17.79296875 16.1002604166667  C 17.7973090277778 16.2087673611111  17.7647569444444 16.3064236111111  17.6953125 16.3932291666667  C 16.7491319444444 17.5390625  15.6032986111111 18.4266493055556  14.2578125 19.0559895833333  C 12.9123263888889 19.6853298611111  11.4930555555556 20  10 20  C 8.64583333333333 20  7.35243055555556 19.7352430555556  6.11979166666667 19.2057291666667  C 4.88715277777778 18.6762152777778  3.82378472222222 17.9644097222222  2.9296875 17.0703125  C 2.03559027777778 16.1762152777778  1.32378472222222 15.1128472222222  0.794270833333333 13.8802083333333  C 0.264756944444445 12.6475694444444  0 11.3541666666667  0 10  C 0 8.64583333333333  0.264756944444445 7.35243055555556  0.794270833333333 6.11979166666667  C 1.32378472222222 4.88715277777778  2.03559027777778 3.82378472222222  2.9296875 2.9296875  C 3.82378472222222 2.03559027777778  4.88715277777778 1.32378472222222  6.11979166666667 0.794270833333333  C 7.35243055555556 0.264756944444444  8.64583333333333 0  10 0  C 11.2760416666667 0  12.5108506944444 0.240885416666667  13.7044270833333 0.72265625  C 14.8980034722222 1.20442708333333  15.9592013888889 1.88368055555555  16.8880208333333 2.76041666666667  L 18.5807291666667 1.08072916666667  C 18.8324652777778 0.811631944444444  19.1362847222222 0.750868055555554  19.4921875 0.8984375  Z " fill-rule="nonzero" fill="#000000" stroke="none" transform="matrix(1 0 0 1 385 410 )" />
  </g>
</svg>