<?xml version="1.0" encoding="utf-8"?>
<svg version="1.1" xmlns:xlink="http://www.w3.org/1999/xlink" width="12px" height="12px" viewBox="325 196.5  12 12" xmlns="http://www.w3.org/2000/svg">
  <path d="M 331 196.5  C 334.36 196.5  337 199.14  337 202.5  C 337 205.86  334.36 208.5  331 208.5  C 327.64 208.5  325 205.86  325 202.5  C 325 199.14  327.64 196.5  331 196.5  Z " fill-rule="nonzero" fill="#f0f0f0" stroke="none" />
  <path d="M 331 197  C 334.08 197  336.5 199.42  336.5 202.5  C 336.5 205.58  334.08 208  331 208  C 327.92 208  325.5 205.58  325.5 202.5  C 325.5 199.42  327.92 197  331 197  Z " stroke-width="1" stroke="#797979" fill="none" />
  <path d="M 331 205.5  C 329.32 205.5  328 204.18  328 202.5  C 328 200.82  329.32 199.5  331 199.5  C 332.68 199.5  334 200.82  334 202.5  C 334 204.18  332.68 205.5  331 205.5  " fill-rule="nonzero" fill="#797979" stroke="none" />
</svg>