<?xml version="1.0" encoding="utf-8"?>
<svg version="1.1" xmlns:xlink="http://www.w3.org/1999/xlink" width="12px" height="12px" viewBox="272 426  12 12" xmlns="http://www.w3.org/2000/svg">
  <path d="M 278 426  C 281.36 426  284 428.64  284 432  C 284 435.36  281.36 438  278 438  C 274.64 438  272 435.36  272 432  C 272 428.64  274.64 426  278 426  Z " fill-rule="nonzero" fill="#ffffff" stroke="none" />
  <path d="M 278 426.5  C 281.08 426.5  283.5 428.92  283.5 432  C 283.5 435.08  281.08 437.5  278 437.5  C 274.92 437.5  272.5 435.08  272.5 432  C 272.5 428.92  274.92 426.5  278 426.5  Z " stroke-width="1" stroke="#797979" fill="none" />
  <path d="M 278 435  C 276.32 435  275 433.68  275 432  C 275 430.32  276.32 429  278 429  C 279.68 429  281 430.32  281 432  C 281 433.68  279.68 435  278 435  " fill-rule="nonzero" fill="#797979" stroke="none" />
</svg>