<?xml version="1.0" encoding="utf-8"?>
<svg version="1.1" xmlns:xlink="http://www.w3.org/1999/xlink" width="12px" height="12px" viewBox="495 196.5  12 12" xmlns="http://www.w3.org/2000/svg">
  <path d="M 501 196.5  C 504.36 196.5  507 199.14  507 202.5  C 507 205.86  504.36 208.5  501 208.5  C 497.64 208.5  495 205.86  495 202.5  C 495 199.14  497.64 196.5  501 196.5  Z " fill-rule="nonzero" fill="#ffffff" stroke="none" />
  <path d="M 501 197  C 504.08 197  506.5 199.42  506.5 202.5  C 506.5 205.58  504.08 208  501 208  C 497.92 208  495.5 205.58  495.5 202.5  C 495.5 199.42  497.92 197  501 197  Z " stroke-width="1" stroke="#797979" fill="none" />
  <path d="M 501 205.5  C 499.32 205.5  498 204.18  498 202.5  C 498 200.82  499.32 199.5  501 199.5  C 502.68 199.5  504 200.82  504 202.5  C 504 204.18  502.68 205.5  501 205.5  " fill-rule="nonzero" fill="#797979" stroke="none" />
</svg>