<?xml version="1.0" encoding="utf-8"?>
<svg version="1.1" xmlns:xlink="http://www.w3.org/1999/xlink" width="12px" height="12px" viewBox="325 155.5  12 12" xmlns="http://www.w3.org/2000/svg">
  <path d="M 331 155.5  C 334.36 155.5  337 158.14  337 161.5  C 337 164.86  334.36 167.5  331 167.5  C 327.64 167.5  325 164.86  325 161.5  C 325 158.14  327.64 155.5  331 155.5  Z " fill-rule="nonzero" fill="#ffffff" stroke="none" />
  <path d="M 331 156  C 334.08 156  336.5 158.42  336.5 161.5  C 336.5 164.58  334.08 167  331 167  C 327.92 167  325.5 164.58  325.5 161.5  C 325.5 158.42  327.92 156  331 156  Z " stroke-width="1" stroke="#797979" fill="none" />
  <path d="M 331 164.5  C 329.32 164.5  328 163.18  328 161.5  C 328 159.82  329.32 158.5  331 158.5  C 332.68 158.5  334 159.82  334 161.5  C 334 163.18  332.68 164.5  331 164.5  " fill-rule="nonzero" fill="#797979" stroke="none" />
</svg>