<?xml version="1.0" encoding="utf-8"?>
<svg version="1.1" xmlns:xlink="http://www.w3.org/1999/xlink" width="12px" height="12px" viewBox="272 396  12 12" xmlns="http://www.w3.org/2000/svg">
  <path d="M 278 396  C 281.36 396  284 398.64  284 402  C 284 405.36  281.36 408  278 408  C 274.64 408  272 405.36  272 402  C 272 398.64  274.64 396  278 396  Z " fill-rule="nonzero" fill="#f0f0f0" stroke="none" />
  <path d="M 278 396.5  C 281.08 396.5  283.5 398.92  283.5 402  C 283.5 405.08  281.08 407.5  278 407.5  C 274.92 407.5  272.5 405.08  272.5 402  C 272.5 398.92  274.92 396.5  278 396.5  Z " stroke-width="1" stroke="#797979" fill="none" />
  <path d="M 278 405  C 276.32 405  275 403.68  275 402  C 275 400.32  276.32 399  278 399  C 279.68 399  281 400.32  281 402  C 281 403.68  279.68 405  278 405  " fill-rule="nonzero" fill="#797979" stroke="none" />
</svg>