<?xml version="1.0" encoding="utf-8"?>
<svg version="1.1" xmlns:xlink="http://www.w3.org/1999/xlink" width="12px" height="12px" viewBox="186 401  12 12" xmlns="http://www.w3.org/2000/svg">
  <path d="M 192 401  C 195.36 401  198 403.64  198 407  C 198 410.36  195.36 413  192 413  C 188.64 413  186 410.36  186 407  C 186 403.64  188.64 401  192 401  Z " fill-rule="nonzero" fill="#f0f0f0" stroke="none" />
  <path d="M 192 401.5  C 195.08 401.5  197.5 403.92  197.5 407  C 197.5 410.08  195.08 412.5  192 412.5  C 188.92 412.5  186.5 410.08  186.5 407  C 186.5 403.92  188.92 401.5  192 401.5  Z " stroke-width="1" stroke="#797979" fill="none" />
  <path d="M 192 410  C 190.32 410  189 408.68  189 407  C 189 405.32  190.32 404  192 404  C 193.68 404  195 405.32  195 407  C 195 408.68  193.68 410  192 410  " fill-rule="nonzero" fill="#797979" stroke="none" />
</svg>