<?xml version="1.0" encoding="utf-8"?>
<svg version="1.1" xmlns:xlink="http://www.w3.org/1999/xlink" width="200px" height="150px" xmlns="http://www.w3.org/2000/svg">
  <g transform="matrix(1 0 0 1 -208 -263 )">
    <path d="M 208 263  L 408 263  L 408 413  L 208 413  L 208 263  " fill-rule="nonzero" fill="#cccccc" stroke="none" />
    <path d="M 219 274  L 397 274  L 397 402  L 219 402  L 219 274  " fill-rule="nonzero" fill="#ffffff" stroke="none" />
    <path d="M 323.25 308  C 316.95 308  312 303.05  312 296.75  C 312 290.45  316.95 285.5  323.25 285.5  C 329.55 285.5  334.5 290.45  334.5 296.75  C 334.5 303.05  329.55 308  323.25 308  " fill-rule="nonzero" fill="#cccccc" stroke="none" />
    <path d="M 223 398  L 223 332  L 265.5 302  L 325 344  L 359 320  L 393 344  L 393 398  L 223 398  " fill-rule="nonzero" fill="#169bd5" stroke="none" />
  </g>
</svg>