<?xml version="1.0" encoding="utf-8"?>
<svg version="1.1" xmlns:xlink="http://www.w3.org/1999/xlink" width="25px" height="25px" xmlns="http://www.w3.org/2000/svg">
  <g transform="matrix(1 0 0 1 -1116 -28 )">
    <path d="M 16.2543402777778 0.390625  C 16.529224537037 0.651041666666663  16.6666666666667 0.9594298245614  16.6666666666667 1.31578947368421  L 16.6666666666667 23.6842105263158  C 16.6666666666667 24.0405701754386  16.529224537037 24.3489583333333  16.2543402777778 24.609375  C 15.9794560185185 24.8697916666667  15.6539351851852 25  15.2777777777778 25  C 14.9016203703704 25  14.576099537037 24.8697916666667  14.3012152777778 24.609375  L 7.07465277777778 17.7631578947368  L 1.38888888888889 17.7631578947368  C 1.01273148148148 17.7631578947368  0.687210648148148 17.6329495614035  0.412326388888889 17.3725328947368  C 0.13744212962963 17.1121162280702  0 16.8037280701754  0 16.4473684210526  L 0 8.55263157894737  C 0 8.19627192982456  0.13744212962963 7.88788377192982  0.412326388888889 7.62746710526316  C 0.687210648148148 7.36705043859649  1.01273148148148 7.23684210526316  1.38888888888889 7.23684210526316  L 7.07465277777778 7.23684210526316  L 14.3012152777778 0.390625  C 14.576099537037 0.130208333333331  14.9016203703704 0  15.2777777777778 0  C 15.6539351851852 0  15.9794560185185 0.130208333333331  16.2543402777778 0.390625  Z M 24.0776909722222 9.58059210526316  C 24.6925636574074 10.4851973684211  25 11.4583333333333  25 12.5  C 25 13.5416666666667  24.6925636574074 14.5113760964912  24.0776909722222 15.4091282894737  C 23.462818287037 16.3068804824561  22.6490162037037 16.9476425438596  21.6362847222222 17.3314144736842  C 21.4916087962963 17.3999451754386  21.3107638888889 17.4342105263158  21.09375 17.4342105263158  C 20.7175925925926 17.4342105263158  20.3920717592593 17.3074287280702  20.1171875 17.0538651315789  C 19.8423032407407 16.8003015350877  19.7048611111111 16.4884868421053  19.7048611111111 16.1184210526316  C 19.7048611111111 15.8305921052632  19.7916666666667 15.5873081140351  19.9652777777778 15.3885690789474  C 20.1388888888889 15.1898300438596  20.3486689814815 15.0185032894737  20.5946180555556 14.8745888157895  C 20.8405671296296 14.7306743421053  21.0865162037037 14.5730537280702  21.3324652777778 14.4017269736842  C 21.5784143518519 14.2304002192982  21.7881944444444 13.9836896929825  21.9618055555556 13.6615953947368  C 22.1354166666667 13.3395010964912  22.2222222222222 12.9523026315789  22.2222222222222 12.5  C 22.2222222222222 12.0476973684211  22.1354166666667 11.6604989035088  21.9618055555556 11.3384046052632  C 21.7881944444444 11.0163103070175  21.5784143518519 10.7695997807018  21.3324652777778 10.5982730263158  C 21.0865162037037 10.4269462719298  20.8405671296296 10.2693256578947  20.5946180555556 10.1254111842105  C 20.3486689814815 9.98149671052632  20.1388888888889 9.81016995614035  19.9652777777778 9.61143092105263  C 19.7916666666667 9.41269188596491  19.7048611111111 9.16940789473684  19.7048611111111 8.88157894736842  C 19.7048611111111 8.51151315789473  19.8423032407407 8.19969846491228  20.1171875 7.94613486842105  C 20.3920717592593 7.69257127192982  20.7175925925926 7.56578947368421  21.09375 7.56578947368421  C 21.3107638888889 7.56578947368421  21.4916087962963 7.6000548245614  21.6362847222222 7.66858552631579  C 22.6490162037037 8.03865131578947  23.462818287037 8.67598684210526  24.0776909722222 9.58059210526316  Z " fill-rule="nonzero" fill="#7f7f7f" stroke="none" transform="matrix(1 0 0 1 1116 28 )" />
  </g>
</svg>