<?xml version="1.0" encoding="utf-8"?>
<svg version="1.1" xmlns:xlink="http://www.w3.org/1999/xlink" width="15px" height="10px" xmlns="http://www.w3.org/2000/svg">
  <g transform="matrix(1 0 0 1 -165 -452 )">
    <path d="M 14.7216796875 8.10763888888889  C 14.9072265625 8.32754629629629  15 8.58796296296296  15 8.88888888888889  C 15 9.18981481481481  14.9072265625 9.45023148148148  14.7216796875 9.67013888888889  C 14.5361328125 9.8900462962963  14.31640625 10  14.0625 10  L 0.9375 10  C 0.68359375 10  0.4638671875 9.8900462962963  0.2783203125 9.67013888888889  C 0.0927734375 9.45023148148148  0 9.18981481481481  0 8.88888888888889  C 0 8.58796296296296  0.0927734375 8.32754629629629  0.2783203125 8.10763888888889  L 6.8408203125 0.329861111111112  C 7.0263671875 0.109953703703702  7.24609375 0  7.5 0  C 7.75390625 0  7.9736328125 0.109953703703702  8.1591796875 0.329861111111112  L 14.7216796875 8.10763888888889  Z " fill-rule="nonzero" fill="#000000" stroke="none" transform="matrix(1 0 0 1 165 452 )" />
  </g>
</svg>