<?xml version="1.0" encoding="utf-8"?>
<svg version="1.1" xmlns:xlink="http://www.w3.org/1999/xlink" width="15px" height="10px" xmlns="http://www.w3.org/2000/svg">
  <g transform="matrix(1 0 0 1 -165 -452 )">
    <path d="M 14.7216796875 0.329861111111112  C 14.9072265625 0.549768518518517  15 0.810185185185183  15 1.11111111111111  C 15 1.41203703703704  14.9072265625 1.6724537037037  14.7216796875 1.89236111111111  L 8.1591796875 9.67013888888889  C 7.9736328125 9.8900462962963  7.75390625 10  7.5 10  C 7.24609375 10  7.0263671875 9.8900462962963  6.8408203125 9.67013888888889  L 0.2783203125 1.89236111111111  C 0.0927734375 1.6724537037037  0 1.41203703703704  0 1.11111111111111  C 0 0.810185185185183  0.0927734375 0.549768518518517  0.2783203125 0.329861111111112  C 0.4638671875 0.109953703703702  0.68359375 0  0.9375 0  L 14.0625 0  C 14.31640625 0  14.5361328125 0.109953703703702  14.7216796875 0.329861111111112  Z " fill-rule="nonzero" fill="#000000" stroke="none" transform="matrix(1 0 0 1 165 452 )" />
  </g>
</svg>