<?xml version="1.0" encoding="utf-8"?>
<svg version="1.1" xmlns:xlink="http://www.w3.org/1999/xlink" width="25px" height="25px" xmlns="http://www.w3.org/2000/svg">
  <g transform="matrix(1 0 0 1 -1318 -27 )">
    <path d="M 23.6897786458333 8.30829326923077  C 24.5632595486111 9.9208733974359  25 11.6386217948718  25 13.4615384615385  C 25 15.0240384615385  24.6690538194444 16.5164262820513  24.0071614583333 17.9387019230769  C 23.3452690972222 19.3609775641026  22.4555121527778 20.5879407051282  21.337890625 21.6195913461538  C 20.2202690972222 22.6512419871795  18.8910590277778 23.4725560897436  17.3502604166667 24.0835336538462  C 15.8094618055556 24.6945112179487  14.1927083333333 25  12.5 25  C 10.8072916666667 25  9.19053819444445 24.6945112179487  7.64973958333333 24.0835336538462  C 6.10894097222222 23.4725560897436  4.77973090277778 22.6512419871795  3.662109375 21.6195913461538  C 2.54448784722222 20.5879407051282  1.65473090277778 19.3609775641026  0.992838541666667 17.9387019230769  C 0.330946180555556 16.5164262820513  0 15.0240384615385  0 13.4615384615385  C 0 11.6386217948718  0.436740451388889 9.9208733974359  1.31022135416667 8.30829326923077  C 2.18370225694444 6.69571314102564  3.41254340277778 5.34354967948718  4.99674479166667 4.25180288461539  C 5.46332465277778 3.93129006410256  5.9814453125 3.80608974358974  6.55110677083333 3.87620192307692  C 7.12076822916667 3.9463141025641  7.57378472222222 4.19671474358974  7.91015625 4.62740384615385  C 8.25737847222222 5.04807692307692  8.39029947916667 5.52133413461539  8.30891927083333 6.04717548076923  C 8.2275390625 6.57301682692308  7.958984375 6.99619391025641  7.50325520833333 7.31670673076923  C 6.43988715277778 8.05789262820513  5.61794704861111 8.96434294871795  5.03743489583333 10.0360576923077  C 4.45692274305556 11.1077724358974  4.16666666666667 12.2495993589744  4.16666666666667 13.4615384615385  C 4.16666666666667 14.5032051282051  4.38639322916667 15.4972956730769  4.82584635416667 16.4438100961538  C 5.26529947916667 17.3903245192308  5.859375 18.2091346153846  6.60807291666667 18.9002403846154  C 7.35677083333333 19.5913461538462  8.24381510416667 20.1397235576923  9.26920572916667 20.5453725961538  C 10.2945963541667 20.9510216346154  11.3715277777778 21.1538461538462  12.5 21.1538461538462  C 13.6284722222222 21.1538461538462  14.7054036458333 20.9510216346154  15.7307942708333 20.5453725961538  C 16.7561848958333 20.1397235576923  17.6432291666667 19.5913461538462  18.3919270833333 18.9002403846154  C 19.140625 18.2091346153846  19.7347005208333 17.3903245192308  20.1741536458333 16.4438100961538  C 20.6136067708333 15.4972956730769  20.8333333333333 14.5032051282051  20.8333333333333 13.4615384615385  C 20.8333333333333 12.2495993589744  20.5430772569444 11.1077724358974  19.9625651041667 10.0360576923077  C 19.3820529513889 8.96434294871795  18.5601128472222 8.05789262820513  17.4967447916667 7.31670673076923  C 17.041015625 6.99619391025641  16.7724609375 6.57301682692308  16.6910807291667 6.04717548076923  C 16.6097005208333 5.52133413461539  16.7426215277778 5.04807692307692  17.08984375 4.62740384615385  C 17.4262152777778 4.19671474358974  17.8819444444444 3.9463141025641  18.45703125 3.87620192307692  C 19.0321180555556 3.80608974358974  19.5475260416667 3.93129006410256  20.0032552083333 4.25180288461539  C 21.5874565972222 5.34354967948718  22.8162977430556 6.69571314102564  23.6897786458333 8.30829326923077  Z M 13.96484375 0.570913461538461  C 14.3771701388889 0.951522435897434  14.5833333333333 1.40224358974359  14.5833333333333 1.92307692307692  L 14.5833333333333 11.5384615384615  C 14.5833333333333 12.0592948717949  14.3771701388889 12.510016025641  13.96484375 12.890625  C 13.5525173611111 13.271233974359  13.0642361111111 13.4615384615385  12.5 13.4615384615385  C 11.9357638888889 13.4615384615385  11.4474826388889 13.271233974359  11.03515625 12.890625  C 10.6228298611111 12.510016025641  10.4166666666667 12.0592948717949  10.4166666666667 11.5384615384615  L 10.4166666666667 1.92307692307692  C 10.4166666666667 1.40224358974359  10.6228298611111 0.951522435897434  11.03515625 0.570913461538461  C 11.4474826388889 0.190304487179488  11.9357638888889 0  12.5 0  C 13.0642361111111 0  13.5525173611111 0.190304487179488  13.96484375 0.570913461538461  Z " fill-rule="nonzero" fill="#7f7f7f" stroke="none" transform="matrix(1 0 0 1 1318 27 )" />
  </g>
</svg>