<?xml version="1.0" encoding="utf-8"?>
<svg version="1.1" xmlns:xlink="http://www.w3.org/1999/xlink" width="25px" height="20px" xmlns="http://www.w3.org/2000/svg">
  <g transform="matrix(1 0 0 1 -26 -84 )">
    <path d="M 21.4064436183395 11.4263445050663  C 21.4167699297811 11.4471291244479  21.4219330855019 11.4783060535204  21.4219330855019 11.5198752922837  L 21.4219330855019 19.0023382696804  C 21.4219330855019 19.272538321642  21.3238331268071 19.5063652896856  21.1276332094176 19.7038191738114  C 20.9314332920281 19.9012730579371  20.6990912845931 20  20.4306071871128 20  L 14.4826517967782 20  L 14.4826517967782 14.0140296180826  L 10.5173482032218 14.0140296180826  L 10.5173482032218 20  L 4.56939281288724 20  C 4.30090871540686 20  4.06856670797191 19.9012730579371  3.8723667905824 19.7038191738114  C 3.6761668731929 19.5063652896856  3.57806691449814 19.272538321642  3.57806691449814 19.0023382696804  L 3.57806691449814 11.5198752922837  C 3.57806691449814 11.5094829825929  3.58064849235853 11.4938945180566  3.58581164807931 11.473109898675  C 3.59097480380008 11.4523252792933  3.59355638166047 11.4367368147571  3.59355638166047 11.4263445050663  L 12.5 4.03741231488698  L 21.4064436183395 11.4263445050663  Z M 24.9845105328377 10.0779423226812  C 24.9948368442792 10.2182385035074  24.9586947542338 10.3403481423746  24.8760842627014 10.4442712392829  L 23.9157372986369 11.5978176149649  C 23.8331268071045 11.6913484021824  23.7247005369682 11.7485061054819  23.590458488228 11.7692907248636  L 23.543990086741 11.7692907248636  C 23.4097480380008 11.7692907248636  23.3013217678645 11.7329176409457  23.2187112763321 11.6601714731099  L 12.5 2.66562743569758  L 1.78128872366791 11.6601714731099  C 1.65737298636927 11.7433099506365  1.53345724907063 11.7796830345544  1.40954151177199 11.7692907248636  C 1.27529946303181 11.7485061054819  1.1668731928955 11.6913484021824  1.08426270136307 11.5978176149649  L 0.123915737298637 10.4442712392829  C 0.0413052457662123 10.3403481423746  0.00516315572077658 10.2182385035074  0.0154894671623296 10.0779423226812  C 0.0258157786038828 9.93764614185503  0.0826104915324247 9.82592881267862  0.185873605947955 9.74279033515199  L 11.3228004956629 0.405300077942323  C 11.6532424617926 0.135100025980772  12.0456422965717 0  12.5 0  C 12.9543577034283 0  13.3467575382074 0.135100025980772  13.6771995043371 0.405300077942323  L 17.4566294919455 3.58534684333593  L 17.4566294919455 0.54559625876851  C 17.4566294919455 0.400103923096906  17.5030978934325 0.280592361652376  17.5960346964064 0.187061574434919  C 17.6889714993804 0.0935307872174596  17.8077240809583 0.0467653936087298  17.95229244114 0.0467653936087298  L 20.9262701363073 0.0467653936087298  C 21.0708384964891 0.0467653936087298  21.1895910780669 0.0935307872174596  21.2825278810409 0.187061574434919  C 21.3754646840149 0.280592361652376  21.4219330855019 0.400103923096906  21.4219330855019 0.54559625876851  L 21.4219330855019 6.90568978955573  L 24.814126394052 9.74279033515199  C 24.9173895084676 9.82592881267862  24.9741842213961 9.93764614185503  24.9845105328377 10.0779423226812  Z " fill-rule="nonzero" fill="#555555" stroke="none" transform="matrix(1 0 0 1 26 84 )" />
  </g>
</svg>