<?xml version="1.0" encoding="utf-8"?>
<svg version="1.1" xmlns:xlink="http://www.w3.org/1999/xlink" width="81px" height="81px" xmlns="http://www.w3.org/2000/svg">
  <defs>
    <mask fill="white" id="clip1307">
      <path d="M 0 0  L 80 0  L 80 80  L 0 80  L 0 0  Z " fill-rule="evenodd" />
    </mask>
  </defs>
  <g transform="matrix(1 0 0 1 -298 -320 )">
    <path d="M 0 0  L 80 0  L 80 80  L 0 80  L 0 0  Z " fill-rule="nonzero" fill="#ffffff" stroke="none" transform="matrix(1 0 0 1 298 320 )" />
    <path d="M 0 0  L 80 0  L 80 80  L 0 80  L 0 0  Z " stroke-width="2" stroke="#797979" fill="none" transform="matrix(1 0 0 1 298 320 )" mask="url(#clip1307)" />
    <path d="M 16 40.5  L 64 40.5  M 40.5 16  L 40.5 64  " stroke-width="1" stroke="#797979" fill="none" transform="matrix(1 0 0 1 298 320 )" mask="url(#clip1307)" />
  </g>
</svg>