<?xml version="1.0" encoding="utf-8"?>
<svg version="1.1" xmlns:xlink="http://www.w3.org/1999/xlink" width="156px" height="80px" xmlns="http://www.w3.org/2000/svg">
  <g transform="matrix(1 0 0 1 -298 -320 )">
    <path d="M 298 320  L 454 320  L 454 400  L 298 400  L 298 320  " fill-rule="nonzero" fill="#cccccc" stroke="none" />
    <path d="M 304 326  L 448 326  L 448 394  L 304 394  L 304 326  " fill-rule="nonzero" fill="#ffffff" stroke="none" />
    <path d="M 385.12 344  C 381.76 344  379.12 341.36  379.12 338  C 379.12 334.64  381.76 332  385.12 332  C 388.48 332  391.12 334.64  391.12 338  C 391.12 341.36  388.48 344  385.12 344  " fill-rule="nonzero" fill="#cccccc" stroke="none" />
    <path d="M 306 392  L 306 356.8  L 341 340.8  L 390 372.307692307692  L 418 350.4  L 446 372.307692307692  L 446 392  L 306 392  " fill-rule="nonzero" fill="#169bd5" stroke="none" />
  </g>
</svg>