<?xml version="1.0" encoding="utf-8"?>
<svg version="1.1" xmlns:xlink="http://www.w3.org/1999/xlink" width="12px" height="12px" viewBox="467 1602.5  12 12" xmlns="http://www.w3.org/2000/svg">
  <path d="M 473 1602.5  C 476.36 1602.5  479 1605.14  479 1608.5  C 479 1611.86  476.36 1614.5  473 1614.5  C 469.64 1614.5  467 1611.86  467 1608.5  C 467 1605.14  469.64 1602.5  473 1602.5  Z " fill-rule="nonzero" fill="#f0f0f0" stroke="none" />
  <path d="M 473 1603  C 476.08 1603  478.5 1605.42  478.5 1608.5  C 478.5 1611.58  476.08 1614  473 1614  C 469.92 1614  467.5 1611.58  467.5 1608.5  C 467.5 1605.42  469.92 1603  473 1603  Z " stroke-width="1" stroke="#797979" fill="none" />
  <path d="M 473 1611.5  C 471.32 1611.5  470 1610.18  470 1608.5  C 470 1606.82  471.32 1605.5  473 1605.5  C 474.68 1605.5  476 1606.82  476 1608.5  C 476 1610.18  474.68 1611.5  473 1611.5  " fill-rule="nonzero" fill="#797979" stroke="none" />
</svg>