<?xml version="1.0" encoding="utf-8"?>
<svg version="1.1" xmlns:xlink="http://www.w3.org/1999/xlink" width="12px" height="12px" viewBox="298 1637.5  12 12" xmlns="http://www.w3.org/2000/svg">
  <path d="M 304 1637.5  C 307.36 1637.5  310 1640.14  310 1643.5  C 310 1646.86  307.36 1649.5  304 1649.5  C 300.64 1649.5  298 1646.86  298 1643.5  C 298 1640.14  300.64 1637.5  304 1637.5  Z " fill-rule="nonzero" fill="#ffffff" stroke="none" />
  <path d="M 304 1638  C 307.08 1638  309.5 1640.42  309.5 1643.5  C 309.5 1646.58  307.08 1649  304 1649  C 300.92 1649  298.5 1646.58  298.5 1643.5  C 298.5 1640.42  300.92 1638  304 1638  Z " stroke-width="1" stroke="#797979" fill="none" />
  <path d="M 304 1646.5  C 302.32 1646.5  301 1645.18  301 1643.5  C 301 1641.82  302.32 1640.5  304 1640.5  C 305.68 1640.5  307 1641.82  307 1643.5  C 307 1645.18  305.68 1646.5  304 1646.5  " fill-rule="nonzero" fill="#797979" stroke="none" />
</svg>