<?xml version="1.0" encoding="utf-8"?>
<svg version="1.1" xmlns:xlink="http://www.w3.org/1999/xlink" width="12px" height="12px" viewBox="298 1602.5  12 12" xmlns="http://www.w3.org/2000/svg">
  <path d="M 304 1602.5  C 307.36 1602.5  310 1605.14  310 1608.5  C 310 1611.86  307.36 1614.5  304 1614.5  C 300.64 1614.5  298 1611.86  298 1608.5  C 298 1605.14  300.64 1602.5  304 1602.5  Z " fill-rule="nonzero" fill="#ffffff" stroke="none" />
  <path d="M 304 1603  C 307.08 1603  309.5 1605.42  309.5 1608.5  C 309.5 1611.58  307.08 1614  304 1614  C 300.92 1614  298.5 1611.58  298.5 1608.5  C 298.5 1605.42  300.92 1603  304 1603  Z " stroke-width="1" stroke="#797979" fill="none" />
  <path d="M 304 1611.5  C 302.32 1611.5  301 1610.18  301 1608.5  C 301 1606.82  302.32 1605.5  304 1605.5  C 305.68 1605.5  307 1606.82  307 1608.5  C 307 1610.18  305.68 1611.5  304 1611.5  " fill-rule="nonzero" fill="#797979" stroke="none" />
</svg>