<?xml version="1.0" encoding="utf-8"?>
<svg version="1.1" xmlns:xlink="http://www.w3.org/1999/xlink" width="12px" height="12px" viewBox="417 1637.5  12 12" xmlns="http://www.w3.org/2000/svg">
  <path d="M 423 1637.5  C 426.36 1637.5  429 1640.14  429 1643.5  C 429 1646.86  426.36 1649.5  423 1649.5  C 419.64 1649.5  417 1646.86  417 1643.5  C 417 1640.14  419.64 1637.5  423 1637.5  Z " fill-rule="nonzero" fill="#f0f0f0" stroke="none" />
  <path d="M 423 1638  C 426.08 1638  428.5 1640.42  428.5 1643.5  C 428.5 1646.58  426.08 1649  423 1649  C 419.92 1649  417.5 1646.58  417.5 1643.5  C 417.5 1640.42  419.92 1638  423 1638  Z " stroke-width="1" stroke="#797979" fill="none" />
  <path d="M 423 1646.5  C 421.32 1646.5  420 1645.18  420 1643.5  C 420 1641.82  421.32 1640.5  423 1640.5  C 424.68 1640.5  426 1641.82  426 1643.5  C 426 1645.18  424.68 1646.5  423 1646.5  " fill-rule="nonzero" fill="#797979" stroke="none" />
</svg>