<?xml version="1.0" encoding="utf-8"?>
<svg version="1.1" xmlns:xlink="http://www.w3.org/1999/xlink" width="12px" height="12px" viewBox="374 1664.5  12 12" xmlns="http://www.w3.org/2000/svg">
  <path d="M 380 1664.5  C 383.36 1664.5  386 1667.14  386 1670.5  C 386 1673.86  383.36 1676.5  380 1676.5  C 376.64 1676.5  374 1673.86  374 1670.5  C 374 1667.14  376.64 1664.5  380 1664.5  Z " fill-rule="nonzero" fill="#ffffff" stroke="none" />
  <path d="M 380 1665  C 383.08 1665  385.5 1667.42  385.5 1670.5  C 385.5 1673.58  383.08 1676  380 1676  C 376.92 1676  374.5 1673.58  374.5 1670.5  C 374.5 1667.42  376.92 1665  380 1665  Z " stroke-width="1" stroke="#797979" fill="none" />
  <path d="M 380 1673.5  C 378.32 1673.5  377 1672.18  377 1670.5  C 377 1668.82  378.32 1667.5  380 1667.5  C 381.68 1667.5  383 1668.82  383 1670.5  C 383 1672.18  381.68 1673.5  380 1673.5  " fill-rule="nonzero" fill="#797979" stroke="none" />
</svg>