<?xml version="1.0" encoding="utf-8"?>
<svg version="1.1" xmlns:xlink="http://www.w3.org/1999/xlink" width="12px" height="12px" viewBox="374 1698.5  12 12" xmlns="http://www.w3.org/2000/svg">
  <path d="M 380 1698.5  C 383.36 1698.5  386 1701.14  386 1704.5  C 386 1707.86  383.36 1710.5  380 1710.5  C 376.64 1710.5  374 1707.86  374 1704.5  C 374 1701.14  376.64 1698.5  380 1698.5  Z " fill-rule="nonzero" fill="#f0f0f0" stroke="none" />
  <path d="M 380 1699  C 383.08 1699  385.5 1701.42  385.5 1704.5  C 385.5 1707.58  383.08 1710  380 1710  C 376.92 1710  374.5 1707.58  374.5 1704.5  C 374.5 1701.42  376.92 1699  380 1699  Z " stroke-width="1" stroke="#797979" fill="none" />
  <path d="M 380 1707.5  C 378.32 1707.5  377 1706.18  377 1704.5  C 377 1702.82  378.32 1701.5  380 1701.5  C 381.68 1701.5  383 1702.82  383 1704.5  C 383 1706.18  381.68 1707.5  380 1707.5  " fill-rule="nonzero" fill="#797979" stroke="none" />
</svg>