<?xml version="1.0" encoding="utf-8"?>
<svg version="1.1" xmlns:xlink="http://www.w3.org/1999/xlink" width="12px" height="12px" viewBox="350 1776.5  12 12" xmlns="http://www.w3.org/2000/svg">
  <path d="M 356 1776.5  C 359.36 1776.5  362 1779.14  362 1782.5  C 362 1785.86  359.36 1788.5  356 1788.5  C 352.64 1788.5  350 1785.86  350 1782.5  C 350 1779.14  352.64 1776.5  356 1776.5  Z " fill-rule="nonzero" fill="#f0f0f0" stroke="none" />
  <path d="M 356 1777  C 359.08 1777  361.5 1779.42  361.5 1782.5  C 361.5 1785.58  359.08 1788  356 1788  C 352.92 1788  350.5 1785.58  350.5 1782.5  C 350.5 1779.42  352.92 1777  356 1777  Z " stroke-width="1" stroke="#797979" fill="none" />
  <path d="M 356 1785.5  C 354.32 1785.5  353 1784.18  353 1782.5  C 353 1780.82  354.32 1779.5  356 1779.5  C 357.68 1779.5  359 1780.82  359 1782.5  C 359 1784.18  357.68 1785.5  356 1785.5  " fill-rule="nonzero" fill="#797979" stroke="none" />
</svg>