<?xml version="1.0" encoding="utf-8"?>
<svg version="1.1" xmlns:xlink="http://www.w3.org/1999/xlink" width="12px" height="12px" viewBox="377 1811.5  12 12" xmlns="http://www.w3.org/2000/svg">
  <path d="M 383 1811.5  C 386.36 1811.5  389 1814.14  389 1817.5  C 389 1820.86  386.36 1823.5  383 1823.5  C 379.64 1823.5  377 1820.86  377 1817.5  C 377 1814.14  379.64 1811.5  383 1811.5  Z " fill-rule="nonzero" fill="#ffffff" stroke="none" />
  <path d="M 383 1812  C 386.08 1812  388.5 1814.42  388.5 1817.5  C 388.5 1820.58  386.08 1823  383 1823  C 379.92 1823  377.5 1820.58  377.5 1817.5  C 377.5 1814.42  379.92 1812  383 1812  Z " stroke-width="1" stroke="#797979" fill="none" />
  <path d="M 383 1820.5  C 381.32 1820.5  380 1819.18  380 1817.5  C 380 1815.82  381.32 1814.5  383 1814.5  C 384.68 1814.5  386 1815.82  386 1817.5  C 386 1819.18  384.68 1820.5  383 1820.5  " fill-rule="nonzero" fill="#797979" stroke="none" />
</svg>