<?xml version="1.0" encoding="utf-8"?>
<svg version="1.1" xmlns:xlink="http://www.w3.org/1999/xlink" width="12px" height="12px" viewBox="236 1985.5  12 12" xmlns="http://www.w3.org/2000/svg">
  <path d="M 242 1985.5  C 245.36 1985.5  248 1988.14  248 1991.5  C 248 1994.86  245.36 1997.5  242 1997.5  C 238.64 1997.5  236 1994.86  236 1991.5  C 236 1988.14  238.64 1985.5  242 1985.5  Z " fill-rule="nonzero" fill="#f0f0f0" stroke="none" />
  <path d="M 242 1986  C 245.08 1986  247.5 1988.42  247.5 1991.5  C 247.5 1994.58  245.08 1997  242 1997  C 238.92 1997  236.5 1994.58  236.5 1991.5  C 236.5 1988.42  238.92 1986  242 1986  Z " stroke-width="1" stroke="#797979" fill="none" />
  <path d="M 242 1994.5  C 240.32 1994.5  239 1993.18  239 1991.5  C 239 1989.82  240.32 1988.5  242 1988.5  C 243.68 1988.5  245 1989.82  245 1991.5  C 245 1993.18  243.68 1994.5  242 1994.5  " fill-rule="nonzero" fill="#797979" stroke="none" />
</svg>