<?xml version="1.0" encoding="utf-8"?>
<svg version="1.1" xmlns:xlink="http://www.w3.org/1999/xlink" width="12px" height="12px" viewBox="236 2055.5  12 12" xmlns="http://www.w3.org/2000/svg">
  <path d="M 242 2055.5  C 245.36 2055.5  248 2058.14  248 2061.5  C 248 2064.86  245.36 2067.5  242 2067.5  C 238.64 2067.5  236 2064.86  236 2061.5  C 236 2058.14  238.64 2055.5  242 2055.5  Z " fill-rule="nonzero" fill="#f0f0f0" stroke="none" />
  <path d="M 242 2056  C 245.08 2056  247.5 2058.42  247.5 2061.5  C 247.5 2064.58  245.08 2067  242 2067  C 238.92 2067  236.5 2064.58  236.5 2061.5  C 236.5 2058.42  238.92 2056  242 2056  Z " stroke-width="1" stroke="#797979" fill="none" />
  <path d="M 242 2064.5  C 240.32 2064.5  239 2063.18  239 2061.5  C 239 2059.82  240.32 2058.5  242 2058.5  C 243.68 2058.5  245 2059.82  245 2061.5  C 245 2063.18  243.68 2064.5  242 2064.5  " fill-rule="nonzero" fill="#797979" stroke="none" />
</svg>