<?xml version="1.0" encoding="utf-8"?>
<svg version="1.1" xmlns:xlink="http://www.w3.org/1999/xlink" width="12px" height="12px" viewBox="236 2020.5  12 12" xmlns="http://www.w3.org/2000/svg">
  <path d="M 242 2020.5  C 245.36 2020.5  248 2023.14  248 2026.5  C 248 2029.86  245.36 2032.5  242 2032.5  C 238.64 2032.5  236 2029.86  236 2026.5  C 236 2023.14  238.64 2020.5  242 2020.5  Z " fill-rule="nonzero" fill="#f0f0f0" stroke="none" />
  <path d="M 242 2021  C 245.08 2021  247.5 2023.42  247.5 2026.5  C 247.5 2029.58  245.08 2032  242 2032  C 238.92 2032  236.5 2029.58  236.5 2026.5  C 236.5 2023.42  238.92 2021  242 2021  Z " stroke-width="1" stroke="#797979" fill="none" />
  <path d="M 242 2029.5  C 240.32 2029.5  239 2028.18  239 2026.5  C 239 2024.82  240.32 2023.5  242 2023.5  C 243.68 2023.5  245 2024.82  245 2026.5  C 245 2028.18  243.68 2029.5  242 2029.5  " fill-rule="nonzero" fill="#797979" stroke="none" />
</svg>