<?xml version="1.0" encoding="utf-8"?>
<svg version="1.1" xmlns:xlink="http://www.w3.org/1999/xlink" width="12px" height="12px" viewBox="236 2090.5  12 12" xmlns="http://www.w3.org/2000/svg">
  <path d="M 242 2090.5  C 245.36 2090.5  248 2093.14  248 2096.5  C 248 2099.86  245.36 2102.5  242 2102.5  C 238.64 2102.5  236 2099.86  236 2096.5  C 236 2093.14  238.64 2090.5  242 2090.5  Z " fill-rule="nonzero" fill="#f0f0f0" stroke="none" />
  <path d="M 242 2091  C 245.08 2091  247.5 2093.42  247.5 2096.5  C 247.5 2099.58  245.08 2102  242 2102  C 238.92 2102  236.5 2099.58  236.5 2096.5  C 236.5 2093.42  238.92 2091  242 2091  Z " stroke-width="1" stroke="#797979" fill="none" />
  <path d="M 242 2099.5  C 240.32 2099.5  239 2098.18  239 2096.5  C 239 2094.82  240.32 2093.5  242 2093.5  C 243.68 2093.5  245 2094.82  245 2096.5  C 245 2098.18  243.68 2099.5  242 2099.5  " fill-rule="nonzero" fill="#797979" stroke="none" />
</svg>