<?xml version="1.0" encoding="utf-8"?>
<svg version="1.1" xmlns:xlink="http://www.w3.org/1999/xlink" width="150px" height="80px" xmlns="http://www.w3.org/2000/svg">
  <g transform="matrix(1 0 0 1 -406 -2024 )">
    <path d="M 406 2024  L 556 2024  L 556 2104  L 406 2104  L 406 2024  " fill-rule="nonzero" fill="#cccccc" stroke="none" />
    <path d="M 412 2030  L 550 2030  L 550 2098  L 412 2098  L 412 2030  " fill-rule="nonzero" fill="#ffffff" stroke="none" />
    <path d="M 490 2048  C 486.64 2048  484 2045.36  484 2042  C 484 2038.64  486.64 2036  490 2036  C 493.36 2036  496 2038.64  496 2042  C 496 2045.36  493.36 2048  490 2048  " fill-rule="nonzero" fill="#cccccc" stroke="none" />
    <path d="M 414 2096  L 414 2060.8  L 447.5 2044.8  L 494.4 2075.52  L 521.2 2054.4  L 548 2075.52  L 548 2096  L 414 2096  " fill-rule="nonzero" fill="#169bd5" stroke="none" />
  </g>
</svg>