<?xml version="1.0" encoding="utf-8"?>
<svg version="1.1" xmlns:xlink="http://www.w3.org/1999/xlink" width="12px" height="12px" viewBox="451 131.5  12 12" xmlns="http://www.w3.org/2000/svg">
  <path d="M 457 131.5  C 460.36 131.5  463 134.14  463 137.5  C 463 140.86  460.36 143.5  457 143.5  C 453.64 143.5  451 140.86  451 137.5  C 451 134.14  453.64 131.5  457 131.5  Z " fill-rule="nonzero" fill="#f0f0f0" stroke="none" />
  <path d="M 457 132  C 460.08 132  462.5 134.42  462.5 137.5  C 462.5 140.58  460.08 143  457 143  C 453.92 143  451.5 140.58  451.5 137.5  C 451.5 134.42  453.92 132  457 132  Z " stroke-width="1" stroke="#797979" fill="none" />
  <path d="M 457 140.5  C 455.32 140.5  454 139.18  454 137.5  C 454 135.82  455.32 134.5  457 134.5  C 458.68 134.5  460 135.82  460 137.5  C 460 139.18  458.68 140.5  457 140.5  " fill-rule="nonzero" fill="#797979" stroke="none" />
</svg>