<?xml version="1.0" encoding="utf-8"?>
<svg version="1.1" xmlns:xlink="http://www.w3.org/1999/xlink" width="12px" height="12px" viewBox="422 369.5  12 12" xmlns="http://www.w3.org/2000/svg">
  <path d="M 428 369.5  C 431.36 369.5  434 372.14  434 375.5  C 434 378.86  431.36 381.5  428 381.5  C 424.64 381.5  422 378.86  422 375.5  C 422 372.14  424.64 369.5  428 369.5  Z " fill-rule="nonzero" fill="#f0f0f0" stroke="none" />
  <path d="M 428 370  C 431.08 370  433.5 372.42  433.5 375.5  C 433.5 378.58  431.08 381  428 381  C 424.92 381  422.5 378.58  422.5 375.5  C 422.5 372.42  424.92 370  428 370  Z " stroke-width="1" stroke="#797979" fill="none" />
  <path d="M 428 378.5  C 426.32 378.5  425 377.18  425 375.5  C 425 373.82  426.32 372.5  428 372.5  C 429.68 372.5  431 373.82  431 375.5  C 431 377.18  429.68 378.5  428 378.5  " fill-rule="nonzero" fill="#797979" stroke="none" />
</svg>