<?xml version="1.0" encoding="utf-8"?>
<svg version="1.1" xmlns:xlink="http://www.w3.org/1999/xlink" width="12px" height="12px" viewBox="422 409.5  12 12" xmlns="http://www.w3.org/2000/svg">
  <path d="M 428 409.5  C 431.36 409.5  434 412.14  434 415.5  C 434 418.86  431.36 421.5  428 421.5  C 424.64 421.5  422 418.86  422 415.5  C 422 412.14  424.64 409.5  428 409.5  Z " fill-rule="nonzero" fill="#f0f0f0" stroke="none" />
  <path d="M 428 410  C 431.08 410  433.5 412.42  433.5 415.5  C 433.5 418.58  431.08 421  428 421  C 424.92 421  422.5 418.58  422.5 415.5  C 422.5 412.42  424.92 410  428 410  Z " stroke-width="1" stroke="#797979" fill="none" />
  <path d="M 428 418.5  C 426.32 418.5  425 417.18  425 415.5  C 425 413.82  426.32 412.5  428 412.5  C 429.68 412.5  431 413.82  431 415.5  C 431 417.18  429.68 418.5  428 418.5  " fill-rule="nonzero" fill="#797979" stroke="none" />
</svg>