<?xml version="1.0" encoding="utf-8"?>
<svg version="1.1" xmlns:xlink="http://www.w3.org/1999/xlink" width="12px" height="12px" viewBox="531 409.5  12 12" xmlns="http://www.w3.org/2000/svg">
  <path d="M 537 409.5  C 540.36 409.5  543 412.14  543 415.5  C 543 418.86  540.36 421.5  537 421.5  C 533.64 421.5  531 418.86  531 415.5  C 531 412.14  533.64 409.5  537 409.5  Z " fill-rule="nonzero" fill="#ffffff" stroke="none" />
  <path d="M 537 410  C 540.08 410  542.5 412.42  542.5 415.5  C 542.5 418.58  540.08 421  537 421  C 533.92 421  531.5 418.58  531.5 415.5  C 531.5 412.42  533.92 410  537 410  Z " stroke-width="1" stroke="#797979" fill="none" />
  <path d="M 537 418.5  C 535.32 418.5  534 417.18  534 415.5  C 534 413.82  535.32 412.5  537 412.5  C 538.68 412.5  540 413.82  540 415.5  C 540 417.18  538.68 418.5  537 418.5  " fill-rule="nonzero" fill="#797979" stroke="none" />
</svg>