<?xml version="1.0" encoding="utf-8"?>
<svg version="1.1" xmlns:xlink="http://www.w3.org/1999/xlink" width="12px" height="12px" viewBox="531 455.5  12 12" xmlns="http://www.w3.org/2000/svg">
  <path d="M 537 455.5  C 540.36 455.5  543 458.14  543 461.5  C 543 464.86  540.36 467.5  537 467.5  C 533.64 467.5  531 464.86  531 461.5  C 531 458.14  533.64 455.5  537 455.5  Z " fill-rule="nonzero" fill="#f0f0f0" stroke="none" />
  <path d="M 537 456  C 540.08 456  542.5 458.42  542.5 461.5  C 542.5 464.58  540.08 467  537 467  C 533.92 467  531.5 464.58  531.5 461.5  C 531.5 458.42  533.92 456  537 456  Z " stroke-width="1" stroke="#797979" fill="none" />
  <path d="M 537 464.5  C 535.32 464.5  534 463.18  534 461.5  C 534 459.82  535.32 458.5  537 458.5  C 538.68 458.5  540 459.82  540 461.5  C 540 463.18  538.68 464.5  537 464.5  " fill-rule="nonzero" fill="#797979" stroke="none" />
</svg>