<?xml version="1.0" encoding="utf-8"?>
<svg version="1.1" xmlns:xlink="http://www.w3.org/1999/xlink" width="12px" height="12px" viewBox="422 455.5  12 12" xmlns="http://www.w3.org/2000/svg">
  <path d="M 428 455.5  C 431.36 455.5  434 458.14  434 461.5  C 434 464.86  431.36 467.5  428 467.5  C 424.64 467.5  422 464.86  422 461.5  C 422 458.14  424.64 455.5  428 455.5  Z " fill-rule="nonzero" fill="#ffffff" stroke="none" />
  <path d="M 428 456  C 431.08 456  433.5 458.42  433.5 461.5  C 433.5 464.58  431.08 467  428 467  C 424.92 467  422.5 464.58  422.5 461.5  C 422.5 458.42  424.92 456  428 456  Z " stroke-width="1" stroke="#797979" fill="none" />
  <path d="M 428 464.5  C 426.32 464.5  425 463.18  425 461.5  C 425 459.82  426.32 458.5  428 458.5  C 429.68 458.5  431 459.82  431 461.5  C 431 463.18  429.68 464.5  428 464.5  " fill-rule="nonzero" fill="#797979" stroke="none" />
</svg>