<?xml version="1.0" encoding="utf-8"?>
<svg version="1.1" xmlns:xlink="http://www.w3.org/1999/xlink" width="555px" height="296px" xmlns="http://www.w3.org/2000/svg">
  <defs>
    <mask fill="white" id="clip211">
      <path d="M 0 295  L 0 0  L 554 0  L 554 295  L 0 295  Z " fill-rule="evenodd" />
    </mask>
  </defs>
  <g transform="matrix(1 0 0 1 -125 -272 )">
    <path d="M 0 295  L 0 0  L 554 0  L 554 295  L 0 295  Z " fill-rule="nonzero" fill="#ffffff" stroke="none" transform="matrix(1 0 0 1 125 272 )" />
    <path d="M 0 295  L 0 0  L 554 0  L 554 295  L 0 295  Z " stroke-width="2" stroke="#797979" fill="none" transform="matrix(1 0 0 1 125 272 )" mask="url(#clip211)" />
    <path d="M 0 41.5  L 554 41.5  M 0 241.5  L 554 241.5  " stroke-width="1" stroke="#797979" fill="none" transform="matrix(1 0 0 1 125 272 )" mask="url(#clip211)" />
  </g>
</svg>