<?xml version="1.0" encoding="utf-8"?>
<svg version="1.1" xmlns:xlink="http://www.w3.org/1999/xlink" width="12px" height="12px" viewBox="528 562.5  12 12" xmlns="http://www.w3.org/2000/svg">
  <path d="M 534 562.5  C 537.36 562.5  540 565.14  540 568.5  C 540 571.86  537.36 574.5  534 574.5  C 530.64 574.5  528 571.86  528 568.5  C 528 565.14  530.64 562.5  534 562.5  Z " fill-rule="nonzero" fill="#f0f0f0" stroke="none" />
  <path d="M 534 563  C 537.08 563  539.5 565.42  539.5 568.5  C 539.5 571.58  537.08 574  534 574  C 530.92 574  528.5 571.58  528.5 568.5  C 528.5 565.42  530.92 563  534 563  Z " stroke-width="1" stroke="#797979" fill="none" />
  <path d="M 534 571.5  C 532.32 571.5  531 570.18  531 568.5  C 531 566.82  532.32 565.5  534 565.5  C 535.68 565.5  537 566.82  537 568.5  C 537 570.18  535.68 571.5  534 571.5  " fill-rule="nonzero" fill="#797979" stroke="none" />
</svg>