<?xml version="1.0" encoding="utf-8"?>
<svg version="1.1" xmlns:xlink="http://www.w3.org/1999/xlink" width="12px" height="12px" viewBox="528 502.5  12 12" xmlns="http://www.w3.org/2000/svg">
  <path d="M 534 502.5  C 537.36 502.5  540 505.14  540 508.5  C 540 511.86  537.36 514.5  534 514.5  C 530.64 514.5  528 511.86  528 508.5  C 528 505.14  530.64 502.5  534 502.5  Z " fill-rule="nonzero" fill="#f0f0f0" stroke="none" />
  <path d="M 534 503  C 537.08 503  539.5 505.42  539.5 508.5  C 539.5 511.58  537.08 514  534 514  C 530.92 514  528.5 511.58  528.5 508.5  C 528.5 505.42  530.92 503  534 503  Z " stroke-width="1" stroke="#797979" fill="none" />
  <path d="M 534 511.5  C 532.32 511.5  531 510.18  531 508.5  C 531 506.82  532.32 505.5  534 505.5  C 535.68 505.5  537 506.82  537 508.5  C 537 510.18  535.68 511.5  534 511.5  " fill-rule="nonzero" fill="#797979" stroke="none" />
</svg>