<?xml version="1.0" encoding="utf-8"?>
<svg version="1.1" xmlns:xlink="http://www.w3.org/1999/xlink" width="12px" height="12px" viewBox="528 592.5  12 12" xmlns="http://www.w3.org/2000/svg">
  <path d="M 534 592.5  C 537.36 592.5  540 595.14  540 598.5  C 540 601.86  537.36 604.5  534 604.5  C 530.64 604.5  528 601.86  528 598.5  C 528 595.14  530.64 592.5  534 592.5  Z " fill-rule="nonzero" fill="#ffffff" stroke="none" />
  <path d="M 534 593  C 537.08 593  539.5 595.42  539.5 598.5  C 539.5 601.58  537.08 604  534 604  C 530.92 604  528.5 601.58  528.5 598.5  C 528.5 595.42  530.92 593  534 593  Z " stroke-width="1" stroke="#797979" fill="none" />
  <path d="M 534 601.5  C 532.32 601.5  531 600.18  531 598.5  C 531 596.82  532.32 595.5  534 595.5  C 535.68 595.5  537 596.82  537 598.5  C 537 600.18  535.68 601.5  534 601.5  " fill-rule="nonzero" fill="#797979" stroke="none" />
</svg>