<?xml version="1.0" encoding="utf-8"?>
<svg version="1.1" xmlns:xlink="http://www.w3.org/1999/xlink" width="12px" height="12px" viewBox="528 622.5  12 12" xmlns="http://www.w3.org/2000/svg">
  <path d="M 534 622.5  C 537.36 622.5  540 625.14  540 628.5  C 540 631.86  537.36 634.5  534 634.5  C 530.64 634.5  528 631.86  528 628.5  C 528 625.14  530.64 622.5  534 622.5  Z " fill-rule="nonzero" fill="#f0f0f0" stroke="none" />
  <path d="M 534 623  C 537.08 623  539.5 625.42  539.5 628.5  C 539.5 631.58  537.08 634  534 634  C 530.92 634  528.5 631.58  528.5 628.5  C 528.5 625.42  530.92 623  534 623  Z " stroke-width="1" stroke="#797979" fill="none" />
  <path d="M 534 631.5  C 532.32 631.5  531 630.18  531 628.5  C 531 626.82  532.32 625.5  534 625.5  C 535.68 625.5  537 626.82  537 628.5  C 537 630.18  535.68 631.5  534 631.5  " fill-rule="nonzero" fill="#797979" stroke="none" />
</svg>