<?xml version="1.0" encoding="utf-8"?>
<svg version="1.1" xmlns:xlink="http://www.w3.org/1999/xlink" width="12px" height="12px" viewBox="283 378.5  12 12" xmlns="http://www.w3.org/2000/svg">
  <path d="M 289 378.5  C 292.36 378.5  295 381.14  295 384.5  C 295 387.86  292.36 390.5  289 390.5  C 285.64 390.5  283 387.86  283 384.5  C 283 381.14  285.64 378.5  289 378.5  Z " fill-rule="nonzero" fill="#f0f0f0" stroke="none" />
  <path d="M 289 379  C 292.08 379  294.5 381.42  294.5 384.5  C 294.5 387.58  292.08 390  289 390  C 285.92 390  283.5 387.58  283.5 384.5  C 283.5 381.42  285.92 379  289 379  Z " stroke-width="1" stroke="#797979" fill="none" />
  <path d="M 289 387.5  C 287.32 387.5  286 386.18  286 384.5  C 286 382.82  287.32 381.5  289 381.5  C 290.68 381.5  292 382.82  292 384.5  C 292 386.18  290.68 387.5  289 387.5  " fill-rule="nonzero" fill="#797979" stroke="none" />
</svg>