<?xml version="1.0" encoding="utf-8"?>
<svg version="1.1" xmlns:xlink="http://www.w3.org/1999/xlink" width="15px" height="25px" xmlns="http://www.w3.org/2000/svg">
  <g transform="matrix(1 0 0 1 -608 -434 )">
    <path d="M 10.1513671875 11.279296875  C 10.8837890625 10.4654947916667  11.25 9.48350694444444  11.25 8.33333333333333  C 11.25 7.18315972222222  10.8837890625 6.201171875  10.1513671875 5.38736979166667  C 9.4189453125 4.57356770833333  8.53515625 4.16666666666667  7.5 4.16666666666667  C 6.46484375 4.16666666666667  5.5810546875 4.57356770833333  4.8486328125 5.38736979166667  C 4.1162109375 6.201171875  3.75 7.18315972222222  3.75 8.33333333333333  C 3.75 9.48350694444444  4.1162109375 10.4654947916667  4.8486328125 11.279296875  C 5.5810546875 12.0930989583333  6.46484375 12.5  7.5 12.5  C 8.53515625 12.5  9.4189453125 12.0930989583333  10.1513671875 11.279296875  Z M 12.802734375 2.44140625  C 14.267578125 4.06901041666667  15 6.03298611111111  15 8.33333333333333  C 15 9.51605902777778  14.8388671875 10.4871961805556  14.5166015625 11.2467447916667  L 9.1845703125 23.8444010416667  C 9.0283203125 24.2024739583333  8.79638671875 24.4845920138889  8.48876953125 24.6907552083333  C 8.18115234375 24.8969184027778  7.8515625 25  7.5 25  C 7.1484375 25  6.81884765625 24.8969184027778  6.51123046875 24.6907552083333  C 6.20361328125 24.4845920138889  5.9765625 24.2024739583333  5.830078125 23.8444010416667  L 0.4833984375 11.2467447916667  C 0.1611328125 10.4871961805556  0 9.51605902777778  0 8.33333333333333  C 0 6.03298611111111  0.732421875 4.06901041666667  2.197265625 2.44140625  C 3.662109375 0.813802083333334  5.4296875 0  7.5 0  C 9.5703125 0  11.337890625 0.813802083333334  12.802734375 2.44140625  Z " fill-rule="nonzero" fill="#555555" stroke="none" transform="matrix(1 0 0 1 608 434 )" />
  </g>
</svg>