<?xml version="1.0" encoding="utf-8"?>
<svg version="1.1" xmlns:xlink="http://www.w3.org/1999/xlink" width="10px" height="10px" xmlns="http://www.w3.org/2000/svg">
  <g transform="matrix(1 0 0 1 -414 -165 )">
    <path d="M 0.769230769230769 7.67857142857143  L 0.769230769230769 9.28571428571429  L 2.5 9.28571428571429  L 2.5 7.67857142857143  L 0.769230769230769 7.67857142857143  Z M 2.88461538461538 7.67857142857143  L 2.88461538461538 9.28571428571429  L 4.80769230769231 9.28571428571429  L 4.80769230769231 7.67857142857143  L 2.88461538461538 7.67857142857143  Z M 0.769230769230769 5.53571428571429  L 0.769230769230769 7.32142857142857  L 2.5 7.32142857142857  L 2.5 5.53571428571429  L 0.769230769230769 5.53571428571429  Z M 2.88461538461538 5.53571428571429  L 2.88461538461538 7.32142857142857  L 4.80769230769231 7.32142857142857  L 4.80769230769231 5.53571428571429  L 2.88461538461538 5.53571428571429  Z M 0.769230769230769 3.57142857142857  L 0.769230769230769 5.17857142857143  L 2.5 5.17857142857143  L 2.5 3.57142857142857  L 0.769230769230769 3.57142857142857  Z M 5.19230769230769 7.67857142857143  L 5.19230769230769 9.28571428571429  L 7.11538461538462 9.28571428571429  L 7.11538461538462 7.67857142857143  L 5.19230769230769 7.67857142857143  Z M 2.88461538461538 3.57142857142857  L 2.88461538461538 5.17857142857143  L 4.80769230769231 5.17857142857143  L 4.80769230769231 3.57142857142857  L 2.88461538461538 3.57142857142857  Z M 7.5 7.67857142857143  L 7.5 9.28571428571429  L 9.23076923076923 9.28571428571429  L 9.23076923076923 7.67857142857143  L 7.5 7.67857142857143  Z M 5.19230769230769 5.53571428571429  L 5.19230769230769 7.32142857142857  L 7.11538461538462 7.32142857142857  L 7.11538461538462 5.53571428571429  L 5.19230769230769 5.53571428571429  Z M 3.01983173076923 2.62555803571429  C 3.05789262820513 2.59021577380952  3.07692307692308 2.54836309523809  3.07692307692308 2.5  L 3.07692307692308 0.892857142857143  C 3.07692307692308 0.844494047619048  3.05789262820513 0.802641369047619  3.01983173076923 0.767299107142857  C 2.98177083333333 0.731956845238094  2.93669871794872 0.714285714285714  2.88461538461538 0.714285714285714  L 2.5 0.714285714285714  C 2.44791666666667 0.714285714285714  2.40284455128205 0.731956845238094  2.36478365384615 0.767299107142857  C 2.32672275641026 0.802641369047619  2.30769230769231 0.844494047619048  2.30769230769231 0.892857142857143  L 2.30769230769231 2.5  C 2.30769230769231 2.54836309523809  2.32672275641026 2.59021577380952  2.36478365384615 2.62555803571429  C 2.40284455128205 2.66090029761905  2.44791666666667 2.67857142857143  2.5 2.67857142857143  L 2.88461538461538 2.67857142857143  C 2.93669871794872 2.67857142857143  2.98177083333333 2.66090029761905  3.01983173076923 2.62555803571429  Z M 7.5 5.53571428571429  L 7.5 7.32142857142857  L 9.23076923076923 7.32142857142857  L 9.23076923076923 5.53571428571429  L 7.5 5.53571428571429  Z M 5.19230769230769 3.57142857142857  L 5.19230769230769 5.17857142857143  L 7.11538461538462 5.17857142857143  L 7.11538461538462 3.57142857142857  L 5.19230769230769 3.57142857142857  Z M 7.5 3.57142857142857  L 7.5 5.17857142857143  L 9.23076923076923 5.17857142857143  L 9.23076923076923 3.57142857142857  L 7.5 3.57142857142857  Z M 7.63521634615385 2.62555803571429  C 7.67327724358974 2.59021577380952  7.69230769230769 2.54836309523809  7.69230769230769 2.5  L 7.69230769230769 0.892857142857143  C 7.69230769230769 0.844494047619048  7.67327724358974 0.802641369047619  7.63521634615385 0.767299107142857  C 7.59715544871795 0.731956845238094  7.55208333333333 0.714285714285714  7.5 0.714285714285714  L 7.11538461538462 0.714285714285714  C 7.06330128205128 0.714285714285714  7.01822916666667 0.731956845238094  6.98016826923077 0.767299107142857  C 6.94210737179487 0.802641369047619  6.92307692307692 0.844494047619048  6.92307692307692 0.892857142857143  L 6.92307692307692 2.5  C 6.92307692307692 2.54836309523809  6.94210737179487 2.59021577380952  6.98016826923077 2.62555803571429  C 7.01822916666667 2.66090029761905  7.06330128205128 2.67857142857143  7.11538461538462 2.67857142857143  L 7.5 2.67857142857143  C 7.55208333333333 2.67857142857143  7.59715544871795 2.66090029761905  7.63521634615385 2.62555803571429  Z M 9.77163461538462 1.640625  C 9.92387820512821 1.78199404761905  10 1.94940476190476  10 2.14285714285714  L 10 9.28571428571429  C 10 9.47916666666667  9.92387820512821 9.64657738095238  9.77163461538462 9.78794642857143  C 9.61939102564103 9.92931547619048  9.43910256410257 10  9.23076923076923 10  L 0.769230769230769 10  C 0.560897435897436 10  0.380608974358974 9.92931547619048  0.228365384615385 9.78794642857143  C 0.0761217948717949 9.64657738095238  0 9.47916666666667  0 9.28571428571429  L 0 2.14285714285714  C 0 1.94940476190476  0.0761217948717949 1.78199404761905  0.228365384615385 1.640625  C 0.380608974358974 1.49925595238095  0.560897435897436 1.42857142857143  0.769230769230769 1.42857142857143  L 1.53846153846154 1.42857142857143  L 1.53846153846154 0.892857142857143  C 1.53846153846154 0.647321428571429  1.63261217948718 0.437127976190476  1.82091346153846 0.262276785714286  C 2.00921474358974 0.0874255952380953  2.23557692307692 0  2.5 0  L 2.88461538461538 0  C 3.14903846153846 0  3.37540064102564 0.0874255952380953  3.56370192307692 0.262276785714286  C 3.75200320512821 0.437127976190476  3.84615384615385 0.647321428571429  3.84615384615385 0.892857142857143  L 3.84615384615385 1.42857142857143  L 6.15384615384615 1.42857142857143  L 6.15384615384615 0.892857142857143  C 6.15384615384615 0.647321428571429  6.2479967948718 0.437127976190476  6.43629807692308 0.262276785714286  C 6.62459935897436 0.0874255952380953  6.85096153846154 0  7.11538461538462 0  L 7.5 0  C 7.76442307692308 0  7.99078525641026 0.0874255952380953  8.17908653846154 0.262276785714286  C 8.36738782051282 0.437127976190476  8.46153846153846 0.647321428571429  8.46153846153846 0.892857142857143  L 8.46153846153846 1.42857142857143  L 9.23076923076923 1.42857142857143  C 9.43910256410257 1.42857142857143  9.61939102564103 1.49925595238095  9.77163461538462 1.640625  Z " fill-rule="nonzero" fill="#8c8c8c" stroke="none" transform="matrix(1 0 0 1 414 165 )" />
  </g>
</svg>