<?xml version="1.0" encoding="utf-8"?>
<svg version="1.1" xmlns:xlink="http://www.w3.org/1999/xlink" width="12px" height="12px" viewBox="459 265.5  12 12" xmlns="http://www.w3.org/2000/svg">
  <path d="M 465 265.5  C 468.36 265.5  471 268.14  471 271.5  C 471 274.86  468.36 277.5  465 277.5  C 461.64 277.5  459 274.86  459 271.5  C 459 268.14  461.64 265.5  465 265.5  Z " fill-rule="nonzero" fill="#f0f0f0" stroke="none" />
  <path d="M 465 266  C 468.08 266  470.5 268.42  470.5 271.5  C 470.5 274.58  468.08 277  465 277  C 461.92 277  459.5 274.58  459.5 271.5  C 459.5 268.42  461.92 266  465 266  Z " stroke-width="1" stroke="#797979" fill="none" />
  <path d="M 465 274.5  C 463.32 274.5  462 273.18  462 271.5  C 462 269.82  463.32 268.5  465 268.5  C 466.68 268.5  468 269.82  468 271.5  C 468 273.18  466.68 274.5  465 274.5  " fill-rule="nonzero" fill="#797979" stroke="none" />
</svg>