<?xml version="1.0" encoding="utf-8"?>
<svg version="1.1" xmlns:xlink="http://www.w3.org/1999/xlink" width="12px" height="12px" viewBox="309 265.5  12 12" xmlns="http://www.w3.org/2000/svg">
  <path d="M 315 265.5  C 318.36 265.5  321 268.14  321 271.5  C 321 274.86  318.36 277.5  315 277.5  C 311.64 277.5  309 274.86  309 271.5  C 309 268.14  311.64 265.5  315 265.5  Z " fill-rule="nonzero" fill="#ffffff" stroke="none" />
  <path d="M 315 266  C 318.08 266  320.5 268.42  320.5 271.5  C 320.5 274.58  318.08 277  315 277  C 311.92 277  309.5 274.58  309.5 271.5  C 309.5 268.42  311.92 266  315 266  Z " stroke-width="1" stroke="#797979" fill="none" />
  <path d="M 315 274.5  C 313.32 274.5  312 273.18  312 271.5  C 312 269.82  313.32 268.5  315 268.5  C 316.68 268.5  318 269.82  318 271.5  C 318 273.18  316.68 274.5  315 274.5  " fill-rule="nonzero" fill="#797979" stroke="none" />
</svg>