<?xml version="1.0" encoding="utf-8"?>
<svg version="1.1" xmlns:xlink="http://www.w3.org/1999/xlink" width="10px" height="10px" xmlns="http://www.w3.org/2000/svg">
  <g transform="matrix(1 0 0 1 -476 -662 )">
    <path d="M 481 662  C 483.8 662  486 664.2  486 667  C 486 669.8  483.8 672  481 672  C 478.2 672  476 669.8  476 667  C 476 664.2  478.2 662  481 662  Z " fill-rule="nonzero" fill="#aaaaaa" stroke="none" />
    <path d="M 481 662.5  C 483.52 662.5  485.5 664.48  485.5 667  C 485.5 669.52  483.52 671.5  481 671.5  C 478.48 671.5  476.5 669.52  476.5 667  C 476.5 664.48  478.48 662.5  481 662.5  Z " stroke-width="1" stroke="#797979" fill="none" />
  </g>
</svg>