<?xml version="1.0" encoding="utf-8"?>
<svg version="1.1" xmlns:xlink="http://www.w3.org/1999/xlink" width="75px" height="50px" xmlns="http://www.w3.org/2000/svg">
  <g transform="matrix(1 0 0 1 -382 -610 )">
    <path d="M 382 610  L 457 610  L 457 660  L 382 660  L 382 610  " fill-rule="nonzero" fill="#cccccc" stroke="none" />
    <path d="M 386 614  L 453 614  L 453 656  L 386 656  L 386 614  " fill-rule="nonzero" fill="#ffffff" stroke="none" />
    <path d="M 424.75 625  C 422.65 625  421 623.35  421 621.25  C 421 619.15  422.65 617.5  424.75 617.5  C 426.85 617.5  428.5 619.15  428.5 621.25  C 428.5 623.35  426.85 625  424.75 625  " fill-rule="nonzero" fill="#cccccc" stroke="none" />
    <path d="M 388 655  L 388 633.55  L 404 623.8  L 426.4 639.4  L 439.2 629.65  L 452 639.4  L 452 655  L 388 655  " fill-rule="nonzero" fill="#169bd5" stroke="none" />
  </g>
</svg>