<?xml version="1.0" encoding="utf-8"?>
<svg version="1.1" xmlns:xlink="http://www.w3.org/1999/xlink" width="12px" height="12px" viewBox="99 316  12 12" xmlns="http://www.w3.org/2000/svg">
  <path d="M 105 316  C 108.36 316  111 318.64  111 322  C 111 325.36  108.36 328  105 328  C 101.64 328  99 325.36  99 322  C 99 318.64  101.64 316  105 316  Z " fill-rule="nonzero" fill="#f0f0f0" stroke="none" />
  <path d="M 105 316.5  C 108.08 316.5  110.5 318.92  110.5 322  C 110.5 325.08  108.08 327.5  105 327.5  C 101.92 327.5  99.5 325.08  99.5 322  C 99.5 318.92  101.92 316.5  105 316.5  Z " stroke-width="1" stroke="#797979" fill="none" />
  <path d="M 105 325  C 103.32 325  102 323.68  102 322  C 102 320.32  103.32 319  105 319  C 106.68 319  108 320.32  108 322  C 108 323.68  106.68 325  105 325  " fill-rule="nonzero" fill="#797979" stroke="none" />
</svg>