<?xml version="1.0" encoding="utf-8"?>
<svg version="1.1" xmlns:xlink="http://www.w3.org/1999/xlink" width="12px" height="12px" viewBox="99 237  12 12" xmlns="http://www.w3.org/2000/svg">
  <path d="M 105 237  C 108.36 237  111 239.64  111 243  C 111 246.36  108.36 249  105 249  C 101.64 249  99 246.36  99 243  C 99 239.64  101.64 237  105 237  Z " fill-rule="nonzero" fill="#f0f0f0" stroke="none" />
  <path d="M 105 237.5  C 108.08 237.5  110.5 239.92  110.5 243  C 110.5 246.08  108.08 248.5  105 248.5  C 101.92 248.5  99.5 246.08  99.5 243  C 99.5 239.92  101.92 237.5  105 237.5  Z " stroke-width="1" stroke="#797979" fill="none" />
  <path d="M 105 246  C 103.32 246  102 244.68  102 243  C 102 241.32  103.32 240  105 240  C 106.68 240  108 241.32  108 243  C 108 244.68  106.68 246  105 246  " fill-rule="nonzero" fill="#797979" stroke="none" />
</svg>