<?xml version="1.0" encoding="utf-8"?>
<svg version="1.1" xmlns:xlink="http://www.w3.org/1999/xlink" width="12px" height="12px" viewBox="99 396  12 12" xmlns="http://www.w3.org/2000/svg">
  <path d="M 105 396  C 108.36 396  111 398.64  111 402  C 111 405.36  108.36 408  105 408  C 101.64 408  99 405.36  99 402  C 99 398.64  101.64 396  105 396  Z " fill-rule="nonzero" fill="#ffffff" stroke="none" />
  <path d="M 105 396.5  C 108.08 396.5  110.5 398.92  110.5 402  C 110.5 405.08  108.08 407.5  105 407.5  C 101.92 407.5  99.5 405.08  99.5 402  C 99.5 398.92  101.92 396.5  105 396.5  Z " stroke-width="1" stroke="#797979" fill="none" />
  <path d="M 105 405  C 103.32 405  102 403.68  102 402  C 102 400.32  103.32 399  105 399  C 106.68 399  108 400.32  108 402  C 108 403.68  106.68 405  105 405  " fill-rule="nonzero" fill="#797979" stroke="none" />
</svg>