<?xml version="1.0" encoding="utf-8"?>
<svg version="1.1" xmlns:xlink="http://www.w3.org/1999/xlink" width="12px" height="12px" viewBox="99 277  12 12" xmlns="http://www.w3.org/2000/svg">
  <path d="M 105 277  C 108.36 277  111 279.64  111 283  C 111 286.36  108.36 289  105 289  C 101.64 289  99 286.36  99 283  C 99 279.64  101.64 277  105 277  Z " fill-rule="nonzero" fill="#ffffff" stroke="none" />
  <path d="M 105 277.5  C 108.08 277.5  110.5 279.92  110.5 283  C 110.5 286.08  108.08 288.5  105 288.5  C 101.92 288.5  99.5 286.08  99.5 283  C 99.5 279.92  101.92 277.5  105 277.5  Z " stroke-width="1" stroke="#797979" fill="none" />
  <path d="M 105 286  C 103.32 286  102 284.68  102 283  C 102 281.32  103.32 280  105 280  C 106.68 280  108 281.32  108 283  C 108 284.68  106.68 286  105 286  " fill-rule="nonzero" fill="#797979" stroke="none" />
</svg>