<?xml version="1.0" encoding="utf-8"?>
<svg version="1.1" xmlns:xlink="http://www.w3.org/1999/xlink" width="12px" height="12px" viewBox="99 356  12 12" xmlns="http://www.w3.org/2000/svg">
  <path d="M 105 356  C 108.36 356  111 358.64  111 362  C 111 365.36  108.36 368  105 368  C 101.64 368  99 365.36  99 362  C 99 358.64  101.64 356  105 356  Z " fill-rule="nonzero" fill="#f0f0f0" stroke="none" />
  <path d="M 105 356.5  C 108.08 356.5  110.5 358.92  110.5 362  C 110.5 365.08  108.08 367.5  105 367.5  C 101.92 367.5  99.5 365.08  99.5 362  C 99.5 358.92  101.92 356.5  105 356.5  Z " stroke-width="1" stroke="#797979" fill="none" />
  <path d="M 105 365  C 103.32 365  102 363.68  102 362  C 102 360.32  103.32 359  105 359  C 106.68 359  108 360.32  108 362  C 108 363.68  106.68 365  105 365  " fill-rule="nonzero" fill="#797979" stroke="none" />
</svg>