<?xml version="1.0" encoding="utf-8"?>
<svg version="1.1" xmlns:xlink="http://www.w3.org/1999/xlink" width="12px" height="12px" viewBox="99 477  12 12" xmlns="http://www.w3.org/2000/svg">
  <path d="M 105 477  C 108.36 477  111 479.64  111 483  C 111 486.36  108.36 489  105 489  C 101.64 489  99 486.36  99 483  C 99 479.64  101.64 477  105 477  Z " fill-rule="nonzero" fill="#f0f0f0" stroke="none" />
  <path d="M 105 477.5  C 108.08 477.5  110.5 479.92  110.5 483  C 110.5 486.08  108.08 488.5  105 488.5  C 101.92 488.5  99.5 486.08  99.5 483  C 99.5 479.92  101.92 477.5  105 477.5  Z " stroke-width="1" stroke="#797979" fill="none" />
  <path d="M 105 486  C 103.32 486  102 484.68  102 483  C 102 481.32  103.32 480  105 480  C 106.68 480  108 481.32  108 483  C 108 484.68  106.68 486  105 486  " fill-rule="nonzero" fill="#797979" stroke="none" />
</svg>