<?xml version="1.0" encoding="utf-8"?>
<svg version="1.1" xmlns:xlink="http://www.w3.org/1999/xlink" width="12px" height="12px" viewBox="99 437  12 12" xmlns="http://www.w3.org/2000/svg">
  <path d="M 105 437  C 108.36 437  111 439.64  111 443  C 111 446.36  108.36 449  105 449  C 101.64 449  99 446.36  99 443  C 99 439.64  101.64 437  105 437  Z " fill-rule="nonzero" fill="#f0f0f0" stroke="none" />
  <path d="M 105 437.5  C 108.08 437.5  110.5 439.92  110.5 443  C 110.5 446.08  108.08 448.5  105 448.5  C 101.92 448.5  99.5 446.08  99.5 443  C 99.5 439.92  101.92 437.5  105 437.5  Z " stroke-width="1" stroke="#797979" fill="none" />
  <path d="M 105 446  C 103.32 446  102 444.68  102 443  C 102 441.32  103.32 440  105 440  C 106.68 440  108 441.32  108 443  C 108 444.68  106.68 446  105 446  " fill-rule="nonzero" fill="#797979" stroke="none" />
</svg>