<?xml version="1.0" encoding="utf-8"?>
<svg version="1.1" xmlns:xlink="http://www.w3.org/1999/xlink" width="12px" height="12px" viewBox="485 115.5  12 12" xmlns="http://www.w3.org/2000/svg">
  <path d="M 491 115.5  C 494.36 115.5  497 118.14  497 121.5  C 497 124.86  494.36 127.5  491 127.5  C 487.64 127.5  485 124.86  485 121.5  C 485 118.14  487.64 115.5  491 115.5  Z " fill-rule="nonzero" fill="#f0f0f0" stroke="none" />
  <path d="M 491 116  C 494.08 116  496.5 118.42  496.5 121.5  C 496.5 124.58  494.08 127  491 127  C 487.92 127  485.5 124.58  485.5 121.5  C 485.5 118.42  487.92 116  491 116  Z " stroke-width="1" stroke="#797979" fill="none" />
  <path d="M 491 124.5  C 489.32 124.5  488 123.18  488 121.5  C 488 119.82  489.32 118.5  491 118.5  C 492.68 118.5  494 119.82  494 121.5  C 494 123.18  492.68 124.5  491 124.5  " fill-rule="nonzero" fill="#797979" stroke="none" />
</svg>