<?xml version="1.0" encoding="utf-8"?>
<svg version="1.1" xmlns:xlink="http://www.w3.org/1999/xlink" width="12px" height="12px" viewBox="221 143.5  12 12" xmlns="http://www.w3.org/2000/svg">
  <path d="M 227 143.5  C 230.36 143.5  233 146.14  233 149.5  C 233 152.86  230.36 155.5  227 155.5  C 223.64 155.5  221 152.86  221 149.5  C 221 146.14  223.64 143.5  227 143.5  Z " fill-rule="nonzero" fill="#ffffff" stroke="none" />
  <path d="M 227 144  C 230.08 144  232.5 146.42  232.5 149.5  C 232.5 152.58  230.08 155  227 155  C 223.92 155  221.5 152.58  221.5 149.5  C 221.5 146.42  223.92 144  227 144  Z " stroke-width="1" stroke="#797979" fill="none" />
  <path d="M 227 152.5  C 225.32 152.5  224 151.18  224 149.5  C 224 147.82  225.32 146.5  227 146.5  C 228.68 146.5  230 147.82  230 149.5  C 230 151.18  228.68 152.5  227 152.5  " fill-rule="nonzero" fill="#797979" stroke="none" />
</svg>