<?xml version="1.0" encoding="utf-8"?>
<svg version="1.1" xmlns:xlink="http://www.w3.org/1999/xlink" width="12px" height="12px" viewBox="221 103.5  12 12" xmlns="http://www.w3.org/2000/svg">
  <path d="M 227 103.5  C 230.36 103.5  233 106.14  233 109.5  C 233 112.86  230.36 115.5  227 115.5  C 223.64 115.5  221 112.86  221 109.5  C 221 106.14  223.64 103.5  227 103.5  Z " fill-rule="nonzero" fill="#ffffff" stroke="none" />
  <path d="M 227 104  C 230.08 104  232.5 106.42  232.5 109.5  C 232.5 112.58  230.08 115  227 115  C 223.92 115  221.5 112.58  221.5 109.5  C 221.5 106.42  223.92 104  227 104  Z " stroke-width="1" stroke="#797979" fill="none" />
  <path d="M 227 112.5  C 225.32 112.5  224 111.18  224 109.5  C 224 107.82  225.32 106.5  227 106.5  C 228.68 106.5  230 107.82  230 109.5  C 230 111.18  228.68 112.5  227 112.5  " fill-rule="nonzero" fill="#797979" stroke="none" />
</svg>