<?xml version="1.0" encoding="utf-8"?>
<svg version="1.1" xmlns:xlink="http://www.w3.org/1999/xlink" width="395px" height="222px" xmlns="http://www.w3.org/2000/svg">
  <defs>
    <mask fill="white" id="clip1429">
      <path d="M 394 0  L 394 221  L 0 221  L 0 0  L 394 0  Z " fill-rule="evenodd" />
    </mask>
  </defs>
  <g transform="matrix(1 0 0 1 -290 -103 )">
    <path d="M 394 0  L 394 221  L 0 221  L 0 0  L 394 0  Z " fill-rule="nonzero" fill="#ffffff" stroke="none" transform="matrix(1 0 0 1 290 103 )" />
    <path d="M 394 0  L 394 221  L 0 221  L 0 0  L 394 0  Z " stroke-width="2" stroke="#797979" fill="none" transform="matrix(1 0 0 1 290 103 )" mask="url(#clip1429)" />
    <path d="M 0 44.5  L 394 44.5  " stroke-width="1" stroke="#797979" fill="none" transform="matrix(1 0 0 1 290 103 )" mask="url(#clip1429)" />
  </g>
</svg>