<?xml version="1.0" encoding="utf-8"?>
<svg version="1.1" xmlns:xlink="http://www.w3.org/1999/xlink" width="351px" height="236px" xmlns="http://www.w3.org/2000/svg">
  <defs>
    <mask fill="white" id="clip191">
      <path d="M 350 0  L 350 235  L 0 235  L 0 0  L 350 0  Z " fill-rule="evenodd" />
    </mask>
  </defs>
  <g transform="matrix(1 0 0 1 -198 -105 )">
    <path d="M 350 0  L 350 235  L 0 235  L 0 0  L 350 0  Z " fill-rule="nonzero" fill="#ffffff" stroke="none" transform="matrix(1 0 0 1 198 105 )" />
    <path d="M 350 0  L 350 235  L 0 235  L 0 0  L 350 0  Z " stroke-width="2" stroke="#797979" fill="none" transform="matrix(1 0 0 1 198 105 )" mask="url(#clip191)" />
    <path d="M 0 39.5  L 350 39.5  " stroke-width="1" stroke="#797979" fill="none" transform="matrix(1 0 0 1 198 105 )" mask="url(#clip191)" />
  </g>
</svg>