<?xml version="1.0" encoding="utf-8"?>
<svg version="1.1" xmlns:xlink="http://www.w3.org/1999/xlink" width="561px" height="235px" xmlns="http://www.w3.org/2000/svg">
  <defs>
    <mask fill="white" id="clip210">
      <path d="M 560 0  L 560 234  L 0 234  L 0 0  L 560 0  Z " fill-rule="evenodd" />
    </mask>
  </defs>
  <g transform="matrix(1 0 0 1 -206 -337 )">
    <path d="M 560 0  L 560 234  L 0 234  L 0 0  L 560 0  Z " fill-rule="nonzero" fill="#ffffff" stroke="none" transform="matrix(1 0 0 1 206 337 )" />
    <path d="M 560 0  L 560 234  L 0 234  L 0 0  L 560 0  Z " stroke-width="2" stroke="#797979" fill="none" transform="matrix(1 0 0 1 206 337 )" mask="url(#clip210)" />
    <path d="M 0 46.5  L 560 46.5  " stroke-width="1" stroke="#797979" fill="none" transform="matrix(1 0 0 1 206 337 )" mask="url(#clip210)" />
  </g>
</svg>