<?xml version="1.0" encoding="utf-8"?>
<svg version="1.1" xmlns:xlink="http://www.w3.org/1999/xlink" width="15px" height="10px" xmlns="http://www.w3.org/2000/svg">
  <g transform="matrix(1 0 0 1 -343 -191 )">
    <path d="M 11.1369977678571 7.83420138888889  C 12.255859375 7.13107638888889  13.1863839285714 6.18634259259259  13.9285714285714 5  C 13.0803571428571 3.63425925925926  12.0172991071429 2.61284722222222  10.7393973214286 1.93576388888889  C 11.0797991071429 2.53761574074074  11.25 3.18865740740741  11.25 3.88888888888889  C 11.25 4.95949074074074  10.8830915178571 5.87528935185185  10.1492745535714 6.63628472222222  C 9.41545758928572 7.39728009259259  8.53236607142857 7.77777777777778  7.5 7.77777777777778  C 6.46763392857143 7.77777777777778  5.58454241071429 7.39728009259259  4.85072544642857 6.63628472222222  C 4.11690848214286 5.87528935185185  3.75 4.95949074074074  3.75 3.88888888888889  C 3.75 3.18865740740741  3.92020089285714 2.53761574074074  4.26060267857143 1.93576388888889  C 2.98270089285714 2.61284722222222  1.91964285714286 3.63425925925926  1.07142857142857 5  C 1.81361607142857 6.18634259259259  2.744140625 7.13107638888889  3.86300223214286 7.83420138888889  C 4.98186383928571 8.53732638888889  6.19419642857143 8.88888888888889  7.5 8.88888888888889  C 8.80580357142857 8.88888888888889  10.0181361607143 8.53732638888889  11.1369977678571 7.83420138888889  Z M 7.78459821428571 1.96180555555556  C 7.86272321428572 1.88078703703704  7.90178571428571 1.78240740740741  7.90178571428571 1.66666666666667  C 7.90178571428571 1.55092592592593  7.86272321428572 1.4525462962963  7.78459821428571 1.37152777777778  C 7.70647321428572 1.29050925925926  7.61160714285714 1.25  7.5 1.25  C 6.80245535714286 1.25  6.20396205357143 1.50896990740741  5.70452008928571 2.02690972222222  C 5.205078125 2.54484953703704  4.95535714285714 3.16550925925926  4.95535714285714 3.88888888888889  C 4.95535714285714 4.00462962962963  4.99441964285714 4.10300925925926  5.07254464285714 4.18402777777778  C 5.15066964285714 4.2650462962963  5.24553571428571 4.30555555555556  5.35714285714286 4.30555555555556  C 5.46875 4.30555555555556  5.56361607142857 4.2650462962963  5.64174107142857 4.18402777777778  C 5.71986607142857 4.10300925925926  5.75892857142857 4.00462962962963  5.75892857142857 3.88888888888889  C 5.75892857142857 3.3912037037037  5.92912946428571 2.96585648148148  6.26953125 2.61284722222222  C 6.60993303571429 2.25983796296296  7.02008928571429 2.08333333333333  7.5 2.08333333333333  C 7.61160714285714 2.08333333333333  7.70647321428572 2.04282407407407  7.78459821428571 1.96180555555556  Z M 14.8325892857143 4.40104166666667  C 14.9441964285714 4.60358796296296  15 4.80324074074074  15 5  C 15 5.19675925925926  14.9441964285714 5.39641203703704  14.8325892857143 5.59895833333333  C 14.0513392857143 6.92997685185185  13.0008370535714 7.99623842592593  11.6810825892857 8.79774305555556  C 10.361328125 9.59924768518519  8.96763392857143 10  7.5 10  C 6.03236607142857 10  4.638671875 9.59780092592593  3.31891741071429 8.79340277777778  C 1.99916294642857 7.98900462962963  0.948660714285714 6.92418981481481  0.167410714285714 5.59895833333333  C 0.0558035714285714 5.39641203703704  0 5.19675925925926  0 5  C 0 4.80324074074074  0.0558035714285714 4.60358796296296  0.167410714285714 4.40104166666667  C 0.948660714285714 3.07581018518519  1.99916294642857 2.01099537037037  3.31891741071429 1.20659722222222  C 4.638671875 0.402199074074073  6.03236607142857 0  7.5 0  C 8.96763392857143 0  10.361328125 0.402199074074073  11.6810825892857 1.20659722222222  C 13.0008370535714 2.01099537037037  14.0513392857143 3.07581018518519  14.8325892857143 4.40104166666667  Z " fill-rule="nonzero" fill="#000000" stroke="none" transform="matrix(1 0 0 1 343 191 )" />
  </g>
</svg>