<?xml version="1.0" encoding="utf-8"?>
<svg version="1.1" xmlns:xlink="http://www.w3.org/1999/xlink" width="15px" height="10px" xmlns="http://www.w3.org/2000/svg">
  <g transform="matrix(1 0 0 1 -343 -191 )">
    <path d="M 1.07142857142857 5  C 2.00334821428571 6.27976190476191  3.19475446428571 7.20982142857143  4.64564732142857 7.79017857142857  L 5.29854910714286 6.74107142857143  C 4.81305803571429 6.42857142857143  4.43359375 6.03422619047619  4.16015625 5.55803571428571  C 3.88671875 5.08184523809524  3.75 4.57837301587301  3.75 4.04761904761905  C 3.75 3.44742063492063  3.92020089285714 2.88938492063492  4.26060267857143 2.3735119047619  C 2.98270089285714 2.95386904761905  1.91964285714286 3.82936507936508  1.07142857142857 5  Z M 7.78459821428571 2.39583333333333  C 7.86272321428572 2.32638888888889  7.90178571428571 2.24206349206349  7.90178571428571 2.14285714285714  C 7.90178571428571 2.04365079365079  7.86272321428572 1.9593253968254  7.78459821428571 1.88988095238095  C 7.70647321428572 1.82043650793651  7.61160714285714 1.78571428571429  7.5 1.78571428571429  C 6.80245535714286 1.78571428571429  6.20396205357143 2.00768849206349  5.70452008928571 2.4516369047619  C 5.205078125 2.89558531746032  4.95535714285714 3.42757936507937  4.95535714285714 4.04761904761905  C 4.95535714285714 4.1468253968254  4.99441964285714 4.23115079365079  5.07254464285714 4.30059523809524  C 5.15066964285714 4.37003968253968  5.24553571428571 4.40476190476191  5.35714285714286 4.40476190476191  C 5.46875 4.40476190476191  5.56361607142857 4.37003968253968  5.64174107142857 4.30059523809524  C 5.71986607142857 4.23115079365079  5.75892857142857 4.1468253968254  5.75892857142857 4.04761904761905  C 5.75892857142857 3.62103174603175  5.92912946428571 3.25644841269841  6.26953125 2.95386904761905  C 6.60993303571429 2.65128968253968  7.02008928571429 2.5  7.5 2.5  C 7.61160714285714 2.5  7.70647321428572 2.46527777777778  7.78459821428571 2.39583333333333  Z M 10.8063616071429 0.520833333333334  C 10.8956473214286 0.570436507936507  10.9402901785714 0.637400793650793  10.9402901785714 0.721726190476191  C 10.9402901785714 0.756448412698412  10.9375 0.77876984126984  10.9319196428571 0.788690476190477  C 10.3404017857143 1.72619047619048  9.45870535714286 3.13244047619048  8.28683035714286 5.00744047619048  C 7.11495535714286 6.88244047619048  6.23604910714286 8.28621031746032  5.65011160714286 9.21875  L 5.23995535714286 9.88095238095238  C 5.18415178571429 9.96031746031746  5.10602678571429 10  5.00558035714286 10  C 4.93861607142857 10  4.56473214285714 9.82638888888889  3.88392857142857 9.47916666666667  C 3.79464285714286 9.42956349206349  3.75 9.36011904761905  3.75 9.27083333333333  C 3.75 9.21130952380952  3.87276785714286 8.99553571428571  4.11830357142857 8.62351190476191  C 3.3203125 8.30109126984127  2.58510044642857 7.87202380952381  1.91266741071429 7.33630952380952  C 1.240234375 6.80059523809524  0.658482142857143 6.19295634920635  0.167410714285714 5.51339285714286  C 0.0558035714285714 5.35962301587301  0 5.18849206349206  0 5  C 0 4.81150793650794  0.0558035714285714 4.64037698412698  0.167410714285714 4.48660714285714  C 1.02120535714286 3.32093253968254  2.08147321428571 2.40079365079365  3.34821428571429 1.72619047619048  C 4.61495535714286 1.0515873015873  5.99888392857143 0.714285714285714  7.5 0.714285714285714  C 7.99665178571429 0.714285714285714  8.49888392857143 0.756448412698412  9.00669642857143 0.840773809523809  L 9.45870535714286 0.119047619047619  C 9.51450892857143 0.0396825396825395  9.59263392857143 0  9.69308035714286 0  C 9.72098214285714 0  9.77120535714286 0.0148809523809523  9.84375 0.044642857142857  C 9.91629464285714 0.0744047619047616  10.0027901785714 0.112847222222221  10.1032366071429 0.159970238095238  C 10.2036830357143 0.207093253968254  10.2957589285714 0.252976190476191  10.3794642857143 0.297619047619048  C 10.4631696428571 0.342261904761905  10.5510602678571 0.38814484126984  10.6431361607143 0.435267857142857  C 10.7352120535714 0.482390873015872  10.7896205357143 0.510912698412698  10.8063616071429 0.520833333333334  Z M 11.1830357142857 3.42261904761905  C 11.2276785714286 3.64583333333333  11.25 3.85416666666667  11.25 4.04761904761905  C 11.25 4.73710317460317  11.0295758928571 5.36582341269841  10.5887276785714 5.93377976190476  C 10.1478794642857 6.50173611111111  9.56473214285714 6.90972222222222  8.83928571428572 7.15773809523809  L 11.1830357142857 3.42261904761905  Z M 14.8325892857143 4.48660714285714  C 14.9441964285714 4.65525793650794  15 4.82638888888889  15 5  C 15 5.17361111111111  14.9441964285714 5.34474206349206  14.8325892857143 5.51339285714286  C 14.6149553571429 5.83085317460317  14.3108258928571 6.19047619047619  13.9202008928571 6.59226190476191  C 13.0831473214286 7.44543650793651  12.1135602678571 8.10763888888889  11.0114397321429 8.57886904761905  C 9.90931919642857 9.05009920634921  8.73883928571428 9.28571428571429  7.5 9.28571428571429  L 8.11941964285714 8.30357142857143  C 9.30245535714286 8.21428571428571  10.3976004464286 7.87450396825397  11.4048549107143 7.28422619047619  C 12.412109375 6.69394841269841  13.2533482142857 5.93253968253968  13.9285714285714 5  C 13.2868303571429 4.11210317460317  12.5 3.38293650793651  11.5680803571429 2.8125  L 12.0954241071429 1.97916666666667  C 12.6255580357143 2.29662698412698  13.134765625 2.67609126984127  13.623046875 3.11755952380952  C 14.111328125 3.55902777777778  14.5145089285714 4.01537698412698  14.8325892857143 4.48660714285714  Z " fill-rule="nonzero" fill="#000000" stroke="none" transform="matrix(1 0 0 1 343 191 )" />
  </g>
</svg>