<?xml version="1.0" encoding="utf-8"?>
<svg version="1.1" xmlns:xlink="http://www.w3.org/1999/xlink" width="100px" height="78px" xmlns="http://www.w3.org/2000/svg">
  <g transform="matrix(1 0 0 1 -522 -332 )">
    <path d="M 522 332  L 622 332  L 622 410  L 522 410  L 522 332  " fill-rule="nonzero" fill="#cccccc" stroke="none" />
    <path d="M 527 337  L 617 337  L 617 405  L 527 405  L 527 337  " fill-rule="nonzero" fill="#ffffff" stroke="none" />
    <path d="M 579.85 355.4  C 576.574 355.4  574 352.826  574 349.55  C 574 346.274  576.574 343.7  579.85 343.7  C 583.126 343.7  585.7 346.274  585.7 349.55  C 585.7 352.826  583.126 355.4  579.85 355.4  " fill-rule="nonzero" fill="#cccccc" stroke="none" />
    <path d="M 529 403  L 529 367.8  L 550.5 351.8  L 580.6 373.048  L 597.8 361.4  L 615 373.048  L 615 403  L 529 403  " fill-rule="nonzero" fill="#169bd5" stroke="none" />
  </g>
</svg>