<?xml version="1.0" encoding="utf-8"?>
<svg version="1.1" xmlns:xlink="http://www.w3.org/1999/xlink" width="12px" height="12px" viewBox="528 471.5  12 12" xmlns="http://www.w3.org/2000/svg">
  <path d="M 534 471.5  C 537.36 471.5  540 474.14  540 477.5  C 540 480.86  537.36 483.5  534 483.5  C 530.64 483.5  528 480.86  528 477.5  C 528 474.14  530.64 471.5  534 471.5  Z " fill-rule="nonzero" fill="#f0f0f0" stroke="none" />
  <path d="M 534 472  C 537.08 472  539.5 474.42  539.5 477.5  C 539.5 480.58  537.08 483  534 483  C 530.92 483  528.5 480.58  528.5 477.5  C 528.5 474.42  530.92 472  534 472  Z " stroke-width="1" stroke="#797979" fill="none" />
  <path d="M 534 480.5  C 532.32 480.5  531 479.18  531 477.5  C 531 475.82  532.32 474.5  534 474.5  C 535.68 474.5  537 475.82  537 477.5  C 537 479.18  535.68 480.5  534 480.5  " fill-rule="nonzero" fill="#797979" stroke="none" />
</svg>