<?xml version="1.0" encoding="utf-8"?>
<svg version="1.1" xmlns:xlink="http://www.w3.org/1999/xlink" width="12px" height="12px" viewBox="678 471.5  12 12" xmlns="http://www.w3.org/2000/svg">
  <path d="M 684 471.5  C 687.36 471.5  690 474.14  690 477.5  C 690 480.86  687.36 483.5  684 483.5  C 680.64 483.5  678 480.86  678 477.5  C 678 474.14  680.64 471.5  684 471.5  Z " fill-rule="nonzero" fill="#ffffff" stroke="none" />
  <path d="M 684 472  C 687.08 472  689.5 474.42  689.5 477.5  C 689.5 480.58  687.08 483  684 483  C 680.92 483  678.5 480.58  678.5 477.5  C 678.5 474.42  680.92 472  684 472  Z " stroke-width="1" stroke="#797979" fill="none" />
  <path d="M 684 480.5  C 682.32 480.5  681 479.18  681 477.5  C 681 475.82  682.32 474.5  684 474.5  C 685.68 474.5  687 475.82  687 477.5  C 687 479.18  685.68 480.5  684 480.5  " fill-rule="nonzero" fill="#797979" stroke="none" />
</svg>