<?xml version="1.0" encoding="utf-8"?>
<svg version="1.1" xmlns:xlink="http://www.w3.org/1999/xlink" width="20px" height="20px" xmlns="http://www.w3.org/2000/svg">
  <g transform="matrix(1 0 0 1 -20 0 )">
    <path d="M 30 0  C 35.6 0  40 4.4  40 10  C 40 15.6  35.6 20  30 20  C 24.4 20  20 15.6  20 10  C 20 4.4  24.4 0  30 0  Z " fill-rule="nonzero" fill="#ffffff" stroke="none" />
    <path d="M 30 0.5  C 35.32 0.5  39.5 4.68  39.5 10  C 39.5 15.32  35.32 19.5  30 19.5  C 24.68 19.5  20.5 15.32  20.5 10  C 20.5 4.68  24.68 0.5  30 0.5  Z " stroke-width="1" stroke="#7f7f7f" fill="none" />
  </g>
</svg>