<?xml version="1.0" encoding="utf-8"?>
<svg version="1.1" xmlns:xlink="http://www.w3.org/1999/xlink" width="10px" height="10px" xmlns="http://www.w3.org/2000/svg">
  <g transform="matrix(1 0 0 1 -464 -1037 )">
    <path d="M 469 1037  C 471.8 1037  474 1039.2  474 1042  C 474 1044.8  471.8 1047  469 1047  C 466.2 1047  464 1044.8  464 1042  C 464 1039.2  466.2 1037  469 1037  Z " fill-rule="nonzero" fill="#aaaaaa" stroke="none" />
    <path d="M 469 1037.5  C 471.52 1037.5  473.5 1039.48  473.5 1042  C 473.5 1044.52  471.52 1046.5  469 1046.5  C 466.48 1046.5  464.5 1044.52  464.5 1042  C 464.5 1039.48  466.48 1037.5  469 1037.5  Z " stroke-width="1" stroke="#797979" fill="none" />
  </g>
</svg>