<?xml version="1.0" encoding="utf-8"?>
<svg version="1.1" xmlns:xlink="http://www.w3.org/1999/xlink" width="12px" height="12px" viewBox="309 226.5  12 12" xmlns="http://www.w3.org/2000/svg">
  <path d="M 315 226.5  C 318.36 226.5  321 229.14  321 232.5  C 321 235.86  318.36 238.5  315 238.5  C 311.64 238.5  309 235.86  309 232.5  C 309 229.14  311.64 226.5  315 226.5  Z " fill-rule="nonzero" fill="#f0f0f0" stroke="none" />
  <path d="M 315 227  C 318.08 227  320.5 229.42  320.5 232.5  C 320.5 235.58  318.08 238  315 238  C 311.92 238  309.5 235.58  309.5 232.5  C 309.5 229.42  311.92 227  315 227  Z " stroke-width="1" stroke="#797979" fill="none" />
  <path d="M 315 235.5  C 313.32 235.5  312 234.18  312 232.5  C 312 230.82  313.32 229.5  315 229.5  C 316.68 229.5  318 230.82  318 232.5  C 318 234.18  316.68 235.5  315 235.5  " fill-rule="nonzero" fill="#797979" stroke="none" />
</svg>