<?xml version="1.0" encoding="utf-8"?>
<svg version="1.1" xmlns:xlink="http://www.w3.org/1999/xlink" width="100px" height="70px" xmlns="http://www.w3.org/2000/svg">
  <g transform="matrix(1 0 0 1 -516 -1134 )">
    <path d="M 516 1134  L 616 1134  L 616 1204  L 516 1204  L 516 1134  " fill-rule="nonzero" fill="#cccccc" stroke="none" />
    <path d="M 521 1139  L 611 1139  L 611 1199  L 521 1199  L 521 1139  " fill-rule="nonzero" fill="#ffffff" stroke="none" />
    <path d="M 573.25 1155  C 570.31 1155  568 1152.69  568 1149.75  C 568 1146.81  570.31 1144.5  573.25 1144.5  C 576.19 1144.5  578.5 1146.81  578.5 1149.75  C 578.5 1152.69  576.19 1155  573.25 1155  " fill-rule="nonzero" fill="#cccccc" stroke="none" />
    <path d="M 523 1197  L 523 1166.2  L 544.5 1152.2  L 574.6 1173.48  L 591.8 1160.6  L 609 1173.48  L 609 1197  L 523 1197  " fill-rule="nonzero" fill="#169bd5" stroke="none" />
  </g>
</svg>