<?xml version="1.0" encoding="utf-8"?>
<svg version="1.1" xmlns:xlink="http://www.w3.org/1999/xlink" width="12px" height="12px" viewBox="552 404.5  12 12" xmlns="http://www.w3.org/2000/svg">
  <path d="M 558 404.5  C 561.36 404.5  564 407.14  564 410.5  C 564 413.86  561.36 416.5  558 416.5  C 554.64 416.5  552 413.86  552 410.5  C 552 407.14  554.64 404.5  558 404.5  Z " fill-rule="nonzero" fill="#ffffff" stroke="none" />
  <path d="M 558 405  C 561.08 405  563.5 407.42  563.5 410.5  C 563.5 413.58  561.08 416  558 416  C 554.92 416  552.5 413.58  552.5 410.5  C 552.5 407.42  554.92 405  558 405  Z " stroke-width="1" stroke="#797979" fill="none" />
  <path d="M 558 413.5  C 556.32 413.5  555 412.18  555 410.5  C 555 408.82  556.32 407.5  558 407.5  C 559.68 407.5  561 408.82  561 410.5  C 561 412.18  559.68 413.5  558 413.5  " fill-rule="nonzero" fill="#797979" stroke="none" />
</svg>