<?xml version="1.0" encoding="utf-8"?>
<svg version="1.1" xmlns:xlink="http://www.w3.org/1999/xlink" width="12px" height="12px" viewBox="423 264.5  12 12" xmlns="http://www.w3.org/2000/svg">
  <path d="M 429 264.5  C 432.36 264.5  435 267.14  435 270.5  C 435 273.86  432.36 276.5  429 276.5  C 425.64 276.5  423 273.86  423 270.5  C 423 267.14  425.64 264.5  429 264.5  Z " fill-rule="nonzero" fill="#f0f0f0" stroke="none" />
  <path d="M 429 265  C 432.08 265  434.5 267.42  434.5 270.5  C 434.5 273.58  432.08 276  429 276  C 425.92 276  423.5 273.58  423.5 270.5  C 423.5 267.42  425.92 265  429 265  Z " stroke-width="1" stroke="#797979" fill="none" />
  <path d="M 429 273.5  C 427.32 273.5  426 272.18  426 270.5  C 426 268.82  427.32 267.5  429 267.5  C 430.68 267.5  432 268.82  432 270.5  C 432 272.18  430.68 273.5  429 273.5  " fill-rule="nonzero" fill="#797979" stroke="none" />
</svg>