<?xml version="1.0" encoding="utf-8"?>
<svg version="1.1" xmlns:xlink="http://www.w3.org/1999/xlink" width="12px" height="12px" viewBox="538 264.5  12 12" xmlns="http://www.w3.org/2000/svg">
  <path d="M 544 264.5  C 547.36 264.5  550 267.14  550 270.5  C 550 273.86  547.36 276.5  544 276.5  C 540.64 276.5  538 273.86  538 270.5  C 538 267.14  540.64 264.5  544 264.5  Z " fill-rule="nonzero" fill="#ffffff" stroke="none" />
  <path d="M 544 265  C 547.08 265  549.5 267.42  549.5 270.5  C 549.5 273.58  547.08 276  544 276  C 540.92 276  538.5 273.58  538.5 270.5  C 538.5 267.42  540.92 265  544 265  Z " stroke-width="1" stroke="#797979" fill="none" />
  <path d="M 544 273.5  C 542.32 273.5  541 272.18  541 270.5  C 541 268.82  542.32 267.5  544 267.5  C 545.68 267.5  547 268.82  547 270.5  C 547 272.18  545.68 273.5  544 273.5  " fill-rule="nonzero" fill="#797979" stroke="none" />
</svg>