<?xml version="1.0" encoding="utf-8"?>
<svg version="1.1" xmlns:xlink="http://www.w3.org/1999/xlink" width="10px" height="8px" xmlns="http://www.w3.org/2000/svg">
  <g transform="matrix(1 0 0 1 -670 -429 )">
    <path d="M 9.8997995991984 6.54295532646048  C 9.96659986639947 6.63459335624284  10 6.73997709049255  10 6.85910652920962  C 10 6.97823596792669  9.96659986639947 7.0836197021764  9.8997995991984 7.17525773195876  L 9.39879759519038 7.86254295532646  C 9.33199732798931 7.95418098510882  9.25517702070808 8  9.16833667334669 8  C 9.0814963259853 8  9.00467601870407 7.95418098510882  8.93787575150301 7.86254295532646  L 5 2.46048109965636  L 1.06212424849699 7.86254295532646  C 0.995323981295925 7.95418098510882  0.918503674014696 8  0.831663326653307 8  C 0.744822979291917 8  0.668002672010688 7.95418098510882  0.601202404809619 7.86254295532646  L 0.100200400801603 7.17525773195876  C 0.0334001336005345 7.0836197021764  0 6.97823596792669  0 6.85910652920962  C 0 6.73997709049255  0.0334001336005345 6.63459335624284  0.100200400801603 6.54295532646048  L 4.76953907815631 0.13745704467354  C 4.83633934535738 0.0458190148911788  4.91315965263861 0  5 0  C 5.08684034736139 0  5.16366065464262 0.0458190148911788  5.23046092184369 0.13745704467354  L 9.8997995991984 6.54295532646048  Z " fill-rule="nonzero" fill="#8c8c8c" stroke="none" transform="matrix(1 0 0 1 670 429 )" />
  </g>
</svg>