<?xml version="1.0" encoding="utf-8"?>
<svg version="1.1" xmlns:xlink="http://www.w3.org/1999/xlink" width="120px" height="120px" xmlns="http://www.w3.org/2000/svg">
  <g transform="matrix(1 0 0 1 -545 -196 )">
    <path d="M 605 196  C 638.6 196  665 222.4  665 256  C 665 289.6  638.6 316  605 316  C 571.4 316  545 289.6  545 256  C 545 222.4  571.4 196  605 196  Z " fill-rule="nonzero" fill="#f2f2f2" stroke="none" />
    <path d="M 605 196.5  C 638.32 196.5  664.5 222.68  664.5 256  C 664.5 289.32  638.32 315.5  605 315.5  C 571.68 315.5  545.5 289.32  545.5 256  C 545.5 222.68  571.68 196.5  605 196.5  Z " stroke-width="1" stroke="#797979" fill="none" />
  </g>
</svg>