<?xml version="1.0" encoding="utf-8"?>
<svg version="1.1" xmlns:xlink="http://www.w3.org/1999/xlink" width="12px" height="12px" viewBox="315 115.5  12 12" xmlns="http://www.w3.org/2000/svg">
  <path d="M 321 115.5  C 324.36 115.5  327 118.14  327 121.5  C 327 124.86  324.36 127.5  321 127.5  C 317.64 127.5  315 124.86  315 121.5  C 315 118.14  317.64 115.5  321 115.5  Z " fill-rule="nonzero" fill="#f0f0f0" stroke="none" />
  <path d="M 321 116  C 324.08 116  326.5 118.42  326.5 121.5  C 326.5 124.58  324.08 127  321 127  C 317.92 127  315.5 124.58  315.5 121.5  C 315.5 118.42  317.92 116  321 116  Z " stroke-width="1" stroke="#797979" fill="none" />
  <path d="M 321 124.5  C 319.32 124.5  318 123.18  318 121.5  C 318 119.82  319.32 118.5  321 118.5  C 322.68 118.5  324 119.82  324 121.5  C 324 123.18  322.68 124.5  321 124.5  " fill-rule="nonzero" fill="#797979" stroke="none" />
</svg>