<?xml version="1.0" encoding="utf-8"?>
<svg version="1.1" xmlns:xlink="http://www.w3.org/1999/xlink" width="12px" height="12px" viewBox="315 187.5  12 12" xmlns="http://www.w3.org/2000/svg">
  <path d="M 321 187.5  C 324.36 187.5  327 190.14  327 193.5  C 327 196.86  324.36 199.5  321 199.5  C 317.64 199.5  315 196.86  315 193.5  C 315 190.14  317.64 187.5  321 187.5  Z " fill-rule="nonzero" fill="#f0f0f0" stroke="none" />
  <path d="M 321 188  C 324.08 188  326.5 190.42  326.5 193.5  C 326.5 196.58  324.08 199  321 199  C 317.92 199  315.5 196.58  315.5 193.5  C 315.5 190.42  317.92 188  321 188  Z " stroke-width="1" stroke="#797979" fill="none" />
  <path d="M 321 196.5  C 319.32 196.5  318 195.18  318 193.5  C 318 191.82  319.32 190.5  321 190.5  C 322.68 190.5  324 191.82  324 193.5  C 324 195.18  322.68 196.5  321 196.5  " fill-rule="nonzero" fill="#797979" stroke="none" />
</svg>