<?xml version="1.0" encoding="utf-8"?>
<svg version="1.1" xmlns:xlink="http://www.w3.org/1999/xlink" width="12px" height="12px" viewBox="404 187.5  12 12" xmlns="http://www.w3.org/2000/svg">
  <path d="M 410 187.5  C 413.36 187.5  416 190.14  416 193.5  C 416 196.86  413.36 199.5  410 199.5  C 406.64 199.5  404 196.86  404 193.5  C 404 190.14  406.64 187.5  410 187.5  Z " fill-rule="nonzero" fill="#f0f0f0" stroke="none" />
  <path d="M 410 188  C 413.08 188  415.5 190.42  415.5 193.5  C 415.5 196.58  413.08 199  410 199  C 406.92 199  404.5 196.58  404.5 193.5  C 404.5 190.42  406.92 188  410 188  Z " stroke-width="1" stroke="#797979" fill="none" />
  <path d="M 410 196.5  C 408.32 196.5  407 195.18  407 193.5  C 407 191.82  408.32 190.5  410 190.5  C 411.68 190.5  413 191.82  413 193.5  C 413 195.18  411.68 196.5  410 196.5  " fill-rule="nonzero" fill="#797979" stroke="none" />
</svg>