<?xml version="1.0" encoding="utf-8"?>
<svg version="1.1" xmlns:xlink="http://www.w3.org/1999/xlink" width="12px" height="12px" viewBox="315 151.5  12 12" xmlns="http://www.w3.org/2000/svg">
  <path d="M 321 151.5  C 324.36 151.5  327 154.14  327 157.5  C 327 160.86  324.36 163.5  321 163.5  C 317.64 163.5  315 160.86  315 157.5  C 315 154.14  317.64 151.5  321 151.5  Z " fill-rule="nonzero" fill="#f0f0f0" stroke="none" />
  <path d="M 321 152  C 324.08 152  326.5 154.42  326.5 157.5  C 326.5 160.58  324.08 163  321 163  C 317.92 163  315.5 160.58  315.5 157.5  C 315.5 154.42  317.92 152  321 152  Z " stroke-width="1" stroke="#797979" fill="none" />
  <path d="M 321 160.5  C 319.32 160.5  318 159.18  318 157.5  C 318 155.82  319.32 154.5  321 154.5  C 322.68 154.5  324 155.82  324 157.5  C 324 159.18  322.68 160.5  321 160.5  " fill-rule="nonzero" fill="#797979" stroke="none" />
</svg>