<?xml version="1.0" encoding="utf-8"?>
<svg version="1.1" xmlns:xlink="http://www.w3.org/1999/xlink" width="12px" height="12px" viewBox="243 286  12 12" xmlns="http://www.w3.org/2000/svg">
  <path d="M 249 286  C 252.36 286  255 288.64  255 292  C 255 295.36  252.36 298  249 298  C 245.64 298  243 295.36  243 292  C 243 288.64  245.64 286  249 286  Z " fill-rule="nonzero" fill="#f0f0f0" stroke="none" />
  <path d="M 249 286.5  C 252.08 286.5  254.5 288.92  254.5 292  C 254.5 295.08  252.08 297.5  249 297.5  C 245.92 297.5  243.5 295.08  243.5 292  C 243.5 288.92  245.92 286.5  249 286.5  Z " stroke-width="1" stroke="#797979" fill="none" />
  <path d="M 249 295  C 247.32 295  246 293.68  246 292  C 246 290.32  247.32 289  249 289  C 250.68 289  252 290.32  252 292  C 252 293.68  250.68 295  249 295  " fill-rule="nonzero" fill="#797979" stroke="none" />
</svg>