<?xml version="1.0" encoding="utf-8"?>
<svg version="1.1" xmlns:xlink="http://www.w3.org/1999/xlink" width="12px" height="12px" viewBox="243 256  12 12" xmlns="http://www.w3.org/2000/svg">
  <path d="M 249 256  C 252.36 256  255 258.64  255 262  C 255 265.36  252.36 268  249 268  C 245.64 268  243 265.36  243 262  C 243 258.64  245.64 256  249 256  Z " fill-rule="nonzero" fill="#ffffff" stroke="none" />
  <path d="M 249 256.5  C 252.08 256.5  254.5 258.92  254.5 262  C 254.5 265.08  252.08 267.5  249 267.5  C 245.92 267.5  243.5 265.08  243.5 262  C 243.5 258.92  245.92 256.5  249 256.5  Z " stroke-width="1" stroke="#797979" fill="none" />
  <path d="M 249 265  C 247.32 265  246 263.68  246 262  C 246 260.32  247.32 259  249 259  C 250.68 259  252 260.32  252 262  C 252 263.68  250.68 265  249 265  " fill-rule="nonzero" fill="#797979" stroke="none" />
</svg>