<?xml version="1.0" encoding="utf-8"?>
<svg version="1.1" xmlns:xlink="http://www.w3.org/1999/xlink" width="12px" height="12px" viewBox="497 459.5  12 12" xmlns="http://www.w3.org/2000/svg">
  <path d="M 503 459.5  C 506.36 459.5  509 462.14  509 465.5  C 509 468.86  506.36 471.5  503 471.5  C 499.64 471.5  497 468.86  497 465.5  C 497 462.14  499.64 459.5  503 459.5  Z " fill-rule="nonzero" fill="#f0f0f0" stroke="none" />
  <path d="M 503 460  C 506.08 460  508.5 462.42  508.5 465.5  C 508.5 468.58  506.08 471  503 471  C 499.92 471  497.5 468.58  497.5 465.5  C 497.5 462.42  499.92 460  503 460  Z " stroke-width="1" stroke="#797979" fill="none" />
  <path d="M 503 468.5  C 501.32 468.5  500 467.18  500 465.5  C 500 463.82  501.32 462.5  503 462.5  C 504.68 462.5  506 463.82  506 465.5  C 506 467.18  504.68 468.5  503 468.5  " fill-rule="nonzero" fill="#797979" stroke="none" />
</svg>