<?xml version="1.0" encoding="utf-8"?>
<svg version="1.1" xmlns:xlink="http://www.w3.org/1999/xlink" width="12px" height="12px" viewBox="301 131.5  12 12" xmlns="http://www.w3.org/2000/svg">
  <path d="M 307 131.5  C 310.36 131.5  313 134.14  313 137.5  C 313 140.86  310.36 143.5  307 143.5  C 303.64 143.5  301 140.86  301 137.5  C 301 134.14  303.64 131.5  307 131.5  Z " fill-rule="nonzero" fill="#f0f0f0" stroke="none" />
  <path d="M 307 132  C 310.08 132  312.5 134.42  312.5 137.5  C 312.5 140.58  310.08 143  307 143  C 303.92 143  301.5 140.58  301.5 137.5  C 301.5 134.42  303.92 132  307 132  Z " stroke-width="1" stroke="#797979" fill="none" />
  <path d="M 307 140.5  C 305.32 140.5  304 139.18  304 137.5  C 304 135.82  305.32 134.5  307 134.5  C 308.68 134.5  310 135.82  310 137.5  C 310 139.18  308.68 140.5  307 140.5  " fill-rule="nonzero" fill="#797979" stroke="none" />
</svg>