<?xml version="1.0" encoding="utf-8"?>
<svg version="1.1" xmlns:xlink="http://www.w3.org/1999/xlink" width="80px" height="80px" xmlns="http://www.w3.org/2000/svg">
  <g transform="matrix(1 0 0 1 -538 -181 )">
    <path d="M 538 181  L 618 181  L 618 261  L 538 261  L 538 181  " fill-rule="nonzero" fill="#cccccc" stroke="none" />
    <path d="M 544 187  L 612 187  L 612 255  L 544 255  L 544 187  " fill-rule="nonzero" fill="#ffffff" stroke="none" />
    <path d="M 585.6 205  C 582.24 205  579.6 202.36  579.6 199  C 579.6 195.64  582.24 193  585.6 193  C 588.96 193  591.6 195.64  591.6 199  C 591.6 202.36  588.96 205  585.6 205  " fill-rule="nonzero" fill="#cccccc" stroke="none" />
    <path d="M 546 253  L 546 217.8  L 562 201.8  L 584.4 214.6  L 597.2 211.4  L 610 214.6  L 610 253  L 546 253  " fill-rule="nonzero" fill="#169bd5" stroke="none" />
  </g>
</svg>