<?xml version="1.0" encoding="utf-8"?>
<svg version="1.1" xmlns:xlink="http://www.w3.org/1999/xlink" width="20px" height="20px" xmlns="http://www.w3.org/2000/svg">
  <g transform="matrix(1 0 0 1 -836 -385 )">
    <path d="M 15.4947916666667 8.33333333333333  C 15.4947916666667 8.55902777777778  15.4123263888889 8.75434027777778  15.2473958333333 8.91927083333333  L 9.75260416666667 14.4140625  C 9.58767361111111 14.5789930555556  9.39236111111111 14.6614583333333  9.16666666666667 14.6614583333333  C 8.94097222222222 14.6614583333333  8.74565972222222 14.5789930555556  8.58072916666667 14.4140625  L 4.75260416666667 10.5859375  C 4.58767361111111 10.4210069444444  4.50520833333333 10.2256944444444  4.50520833333333 10  C 4.50520833333333 9.77430555555556  4.58767361111111 9.57899305555556  4.75260416666667 9.4140625  L 6.08072916666667 8.0859375  C 6.24565972222222 7.92100694444444  6.44097222222222 7.83854166666667  6.66666666666667 7.83854166666667  C 6.89236111111111 7.83854166666667  7.08767361111111 7.92100694444444  7.25260416666667 8.0859375  L 9.16666666666667 10  L 12.7473958333333 6.41927083333333  C 12.9123263888889 6.25434027777778  13.1076388888889 6.171875  13.3333333333333 6.171875  C 13.5590277777778 6.171875  13.7543402777778 6.25434027777778  13.9192708333333 6.41927083333333  L 15.2473958333333 7.74739583333333  C 15.4123263888889 7.91232638888889  15.4947916666667 8.10763888888889  15.4947916666667 8.33333333333333  Z M 16.1328125 13.5546875  C 16.7664930555556 12.4696180555556  17.0833333333333 11.2847222222222  17.0833333333333 10  C 17.0833333333333 8.71527777777778  16.7664930555556 7.53038194444444  16.1328125 6.4453125  C 15.4991319444444 5.36024305555555  14.6397569444444 4.50086805555555  13.5546875 3.8671875  C 12.4696180555556 3.23350694444444  11.2847222222222 2.91666666666667  10 2.91666666666667  C 8.71527777777778 2.91666666666667  7.53038194444445 3.23350694444444  6.4453125 3.8671875  C 5.36024305555556 4.50086805555555  4.50086805555556 5.36024305555555  3.8671875 6.4453125  C 3.23350694444444 7.53038194444444  2.91666666666667 8.71527777777778  2.91666666666667 10  C 2.91666666666667 11.2847222222222  3.23350694444444 12.4696180555556  3.8671875 13.5546875  C 4.50086805555556 14.6397569444444  5.36024305555556 15.4991319444444  6.4453125 16.1328125  C 7.53038194444445 16.7664930555556  8.71527777777778 17.0833333333333  10 17.0833333333333  C 11.2847222222222 17.0833333333333  12.4696180555556 16.7664930555556  13.5546875 16.1328125  C 14.6397569444444 15.4991319444444  15.4991319444444 14.6397569444444  16.1328125 13.5546875  Z M 18.6588541666667 4.98046875  C 19.5529513888889 6.51258680555555  20 8.18576388888889  20 10  C 20 11.8142361111111  19.5529513888889 13.4874131944444  18.6588541666667 15.01953125  C 17.7647569444444 16.5516493055556  16.5516493055556 17.7647569444444  15.01953125 18.6588541666667  C 13.4874131944444 19.5529513888889  11.8142361111111 20  10 20  C 8.18576388888889 20  6.51258680555556 19.5529513888889  4.98046875 18.6588541666667  C 3.44835069444444 17.7647569444444  2.23524305555556 16.5516493055556  1.34114583333333 15.01953125  C 0.447048611111111 13.4874131944444  0 11.8142361111111  0 10  C 0 8.18576388888889  0.447048611111111 6.51258680555555  1.34114583333333 4.98046875  C 2.23524305555556 3.44835069444444  3.44835069444444 2.23524305555555  4.98046875 1.34114583333333  C 6.51258680555556 0.447048611111109  8.18576388888889 0  10 0  C 11.8142361111111 0  13.4874131944444 0.447048611111109  15.01953125 1.34114583333333  C 16.5516493055556 2.23524305555555  17.7647569444444 3.44835069444444  18.6588541666667 4.98046875  Z " fill-rule="nonzero" fill="#555555" stroke="none" transform="matrix(1 0 0 1 836 385 )" />
  </g>
</svg>