<?xml version="1.0" encoding="utf-8"?>
<svg version="1.1" xmlns:xlink="http://www.w3.org/1999/xlink" width="60px" height="40px" xmlns="http://www.w3.org/2000/svg">
  <g transform="matrix(1 0 0 1 -571 -277 )">
    <path d="M 571 277  L 631 277  L 631 317  L 571 317  L 571 277  " fill-rule="nonzero" fill="#cccccc" stroke="none" />
    <path d="M 574 280  L 628 280  L 628 314  L 574 314  L 574 280  " fill-rule="nonzero" fill="#ffffff" stroke="none" />
    <path d="M 605.2 289  C 603.52 289  602.2 287.68  602.2 286  C 602.2 284.32  603.52 283  605.2 283  C 606.88 283  608.2 284.32  608.2 286  C 608.2 287.68  606.88 289  605.2 289  " fill-rule="nonzero" fill="#cccccc" stroke="none" />
    <path d="M 575 313  L 575 295.4  L 588 287.4  L 606.2 300.2  L 616.6 292.2  L 627 300.2  L 627 313  L 575 313  " fill-rule="nonzero" fill="#169bd5" stroke="none" />
  </g>
</svg>