<?xml version="1.0" encoding="utf-8"?>
<svg version="1.1" xmlns:xlink="http://www.w3.org/1999/xlink" width="12px" height="12px" viewBox="552 434.5  12 12" xmlns="http://www.w3.org/2000/svg">
  <path d="M 558 434.5  C 561.36 434.5  564 437.14  564 440.5  C 564 443.86  561.36 446.5  558 446.5  C 554.64 446.5  552 443.86  552 440.5  C 552 437.14  554.64 434.5  558 434.5  Z " fill-rule="nonzero" fill="#ffffff" stroke="none" />
  <path d="M 558 435  C 561.08 435  563.5 437.42  563.5 440.5  C 563.5 443.58  561.08 446  558 446  C 554.92 446  552.5 443.58  552.5 440.5  C 552.5 437.42  554.92 435  558 435  Z " stroke-width="1" stroke="#797979" fill="none" />
  <path d="M 558 443.5  C 556.32 443.5  555 442.18  555 440.5  C 555 438.82  556.32 437.5  558 437.5  C 559.68 437.5  561 438.82  561 440.5  C 561 442.18  559.68 443.5  558 443.5  " fill-rule="nonzero" fill="#797979" stroke="none" />
</svg>