<?xml version="1.0" encoding="utf-8"?>
<svg version="1.1" xmlns:xlink="http://www.w3.org/1999/xlink" width="12px" height="12px" viewBox="552 484.5  12 12" xmlns="http://www.w3.org/2000/svg">
  <path d="M 558 484.5  C 561.36 484.5  564 487.14  564 490.5  C 564 493.86  561.36 496.5  558 496.5  C 554.64 496.5  552 493.86  552 490.5  C 552 487.14  554.64 484.5  558 484.5  Z " fill-rule="nonzero" fill="#f0f0f0" stroke="none" />
  <path d="M 558 485  C 561.08 485  563.5 487.42  563.5 490.5  C 563.5 493.58  561.08 496  558 496  C 554.92 496  552.5 493.58  552.5 490.5  C 552.5 487.42  554.92 485  558 485  Z " stroke-width="1" stroke="#797979" fill="none" />
  <path d="M 558 493.5  C 556.32 493.5  555 492.18  555 490.5  C 555 488.82  556.32 487.5  558 487.5  C 559.68 487.5  561 488.82  561 490.5  C 561 492.18  559.68 493.5  558 493.5  " fill-rule="nonzero" fill="#797979" stroke="none" />
</svg>