<?xml version="1.0" encoding="utf-8"?>
<svg version="1.1" xmlns:xlink="http://www.w3.org/1999/xlink" width="12px" height="12px" viewBox="349 273.5  12 12" xmlns="http://www.w3.org/2000/svg">
  <path d="M 355 273.5  C 358.36 273.5  361 276.14  361 279.5  C 361 282.86  358.36 285.5  355 285.5  C 351.64 285.5  349 282.86  349 279.5  C 349 276.14  351.64 273.5  355 273.5  Z " fill-rule="nonzero" fill="#ffffff" stroke="none" />
  <path d="M 355 274  C 358.08 274  360.5 276.42  360.5 279.5  C 360.5 282.58  358.08 285  355 285  C 351.92 285  349.5 282.58  349.5 279.5  C 349.5 276.42  351.92 274  355 274  Z " stroke-width="1" stroke="#797979" fill="none" />
  <path d="M 355 282.5  C 353.32 282.5  352 281.18  352 279.5  C 352 277.82  353.32 276.5  355 276.5  C 356.68 276.5  358 277.82  358 279.5  C 358 281.18  356.68 282.5  355 282.5  " fill-rule="nonzero" fill="#797979" stroke="none" />
</svg>