<?xml version="1.0" encoding="utf-8"?>
<svg version="1.1" xmlns:xlink="http://www.w3.org/1999/xlink" width="12px" height="12px" viewBox="505 274.5  12 12" xmlns="http://www.w3.org/2000/svg">
  <path d="M 511 274.5  C 514.36 274.5  517 277.14  517 280.5  C 517 283.86  514.36 286.5  511 286.5  C 507.64 286.5  505 283.86  505 280.5  C 505 277.14  507.64 274.5  511 274.5  Z " fill-rule="nonzero" fill="#ffffff" stroke="none" />
  <path d="M 511 275  C 514.08 275  516.5 277.42  516.5 280.5  C 516.5 283.58  514.08 286  511 286  C 507.92 286  505.5 283.58  505.5 280.5  C 505.5 277.42  507.92 275  511 275  Z " stroke-width="1" stroke="#797979" fill="none" />
  <path d="M 511 283.5  C 509.32 283.5  508 282.18  508 280.5  C 508 278.82  509.32 277.5  511 277.5  C 512.68 277.5  514 278.82  514 280.5  C 514 282.18  512.68 283.5  511 283.5  " fill-rule="nonzero" fill="#797979" stroke="none" />
</svg>