<?xml version="1.0" encoding="utf-8"?>
<svg version="1.1" xmlns:xlink="http://www.w3.org/1999/xlink" width="25px" height="20px" xmlns="http://www.w3.org/2000/svg">
  <g transform="matrix(1 0 0 1 -224 -33 )">
    <path d="M 24.6907552083333 16.296875  C 24.8969184027778 16.4947916666667  25 16.7291666666667  25 17  L 25 19  C 25 19.2708333333333  24.8969184027778 19.5052083333333  24.6907552083333 19.703125  C 24.4845920138889 19.9010416666667  24.2404513888889 20  23.9583333333333 20  L 1.04166666666667 20  C 0.759548611111111 20  0.515407986111111 19.9010416666667  0.309244791666667 19.703125  C 0.103081597222222 19.5052083333333  0 19.2708333333333  0 19  L 0 17  C 0 16.7291666666667  0.103081597222222 16.4947916666667  0.309244791666667 16.296875  C 0.515407986111111 16.0989583333333  0.759548611111111 16  1.04166666666667 16  L 23.9583333333333 16  C 24.2404513888889 16  24.4845920138889 16.0989583333333  24.6907552083333 16.296875  Z M 24.6907552083333 8.296875  C 24.8969184027778 8.49479166666667  25 8.72916666666667  25 9  L 25 11  C 25 11.2708333333333  24.8969184027778 11.5052083333333  24.6907552083333 11.703125  C 24.4845920138889 11.9010416666667  24.2404513888889 12  23.9583333333333 12  L 1.04166666666667 12  C 0.759548611111111 12  0.515407986111111 11.9010416666667  0.309244791666667 11.703125  C 0.103081597222222 11.5052083333333  0 11.2708333333333  0 11  L 0 9  C 0 8.72916666666667  0.103081597222222 8.49479166666667  0.309244791666667 8.296875  C 0.515407986111111 8.09895833333334  0.759548611111111 8  1.04166666666667 8  L 23.9583333333333 8  C 24.2404513888889 8  24.4845920138889 8.09895833333334  24.6907552083333 8.296875  Z M 24.6907552083333 0.296875000000001  C 24.8969184027778 0.494791666666665  25 0.729166666666665  25 1  L 25 3  C 25 3.27083333333333  24.8969184027778 3.50520833333333  24.6907552083333 3.703125  C 24.4845920138889 3.90104166666666  24.2404513888889 4  23.9583333333333 4  L 1.04166666666667 4  C 0.759548611111111 4  0.515407986111111 3.90104166666666  0.309244791666667 3.703125  C 0.103081597222222 3.50520833333333  0 3.27083333333333  0 3  L 0 1  C 0 0.729166666666665  0.103081597222222 0.494791666666665  0.309244791666667 0.296875000000001  C 0.515407986111111 0.0989583333333321  0.759548611111111 0  1.04166666666667 0  L 23.9583333333333 0  C 24.2404513888889 0  24.4845920138889 0.0989583333333321  24.6907552083333 0.296875000000001  Z " fill-rule="nonzero" fill="#ffffff" stroke="none" transform="matrix(1 0 0 1 224 33 )" />
  </g>
</svg>