<?xml version="1.0" encoding="utf-8"?>
<svg version="1.1" xmlns:xlink="http://www.w3.org/1999/xlink" width="12px" height="12px" viewBox="77 356  12 12" xmlns="http://www.w3.org/2000/svg">
  <path d="M 83 356  C 86.36 356  89 358.64  89 362  C 89 365.36  86.36 368  83 368  C 79.64 368  77 365.36  77 362  C 77 358.64  79.64 356  83 356  Z " fill-rule="nonzero" fill="#ffffff" stroke="none" />
  <path d="M 83 356.5  C 86.08 356.5  88.5 358.92  88.5 362  C 88.5 365.08  86.08 367.5  83 367.5  C 79.92 367.5  77.5 365.08  77.5 362  C 77.5 358.92  79.92 356.5  83 356.5  Z " stroke-width="1" stroke="#797979" fill="none" />
  <path d="M 83 365  C 81.32 365  80 363.68  80 362  C 80 360.32  81.32 359  83 359  C 84.68 359  86 360.32  86 362  C 86 363.68  84.68 365  83 365  " fill-rule="nonzero" fill="#797979" stroke="none" />
</svg>