<?xml version="1.0" encoding="utf-8"?>
<svg version="1.1" xmlns:xlink="http://www.w3.org/1999/xlink" width="12px" height="12px" viewBox="77 396  12 12" xmlns="http://www.w3.org/2000/svg">
  <path d="M 83 396  C 86.36 396  89 398.64  89 402  C 89 405.36  86.36 408  83 408  C 79.64 408  77 405.36  77 402  C 77 398.64  79.64 396  83 396  Z " fill-rule="nonzero" fill="#f0f0f0" stroke="none" />
  <path d="M 83 396.5  C 86.08 396.5  88.5 398.92  88.5 402  C 88.5 405.08  86.08 407.5  83 407.5  C 79.92 407.5  77.5 405.08  77.5 402  C 77.5 398.92  79.92 396.5  83 396.5  Z " stroke-width="1" stroke="#797979" fill="none" />
  <path d="M 83 405  C 81.32 405  80 403.68  80 402  C 80 400.32  81.32 399  83 399  C 84.68 399  86 400.32  86 402  C 86 403.68  84.68 405  83 405  " fill-rule="nonzero" fill="#797979" stroke="none" />
</svg>