<?xml version="1.0" encoding="utf-8"?>
<svg version="1.1" xmlns:xlink="http://www.w3.org/1999/xlink" width="12px" height="12px" viewBox="77 477  12 12" xmlns="http://www.w3.org/2000/svg">
  <path d="M 83 477  C 86.36 477  89 479.64  89 483  C 89 486.36  86.36 489  83 489  C 79.64 489  77 486.36  77 483  C 77 479.64  79.64 477  83 477  Z " fill-rule="nonzero" fill="#ffffff" stroke="none" />
  <path d="M 83 477.5  C 86.08 477.5  88.5 479.92  88.5 483  C 88.5 486.08  86.08 488.5  83 488.5  C 79.92 488.5  77.5 486.08  77.5 483  C 77.5 479.92  79.92 477.5  83 477.5  Z " stroke-width="1" stroke="#797979" fill="none" />
  <path d="M 83 486  C 81.32 486  80 484.68  80 483  C 80 481.32  81.32 480  83 480  C 84.68 480  86 481.32  86 483  C 86 484.68  84.68 486  83 486  " fill-rule="nonzero" fill="#797979" stroke="none" />
</svg>