<?xml version="1.0" encoding="utf-8"?>
<svg version="1.1" xmlns:xlink="http://www.w3.org/1999/xlink" width="12px" height="12px" viewBox="77 316  12 12" xmlns="http://www.w3.org/2000/svg">
  <path d="M 83 316  C 86.36 316  89 318.64  89 322  C 89 325.36  86.36 328  83 328  C 79.64 328  77 325.36  77 322  C 77 318.64  79.64 316  83 316  Z " fill-rule="nonzero" fill="#ffffff" stroke="none" />
  <path d="M 83 316.5  C 86.08 316.5  88.5 318.92  88.5 322  C 88.5 325.08  86.08 327.5  83 327.5  C 79.92 327.5  77.5 325.08  77.5 322  C 77.5 318.92  79.92 316.5  83 316.5  Z " stroke-width="1" stroke="#797979" fill="none" />
  <path d="M 83 325  C 81.32 325  80 323.68  80 322  C 80 320.32  81.32 319  83 319  C 84.68 319  86 320.32  86 322  C 86 323.68  84.68 325  83 325  " fill-rule="nonzero" fill="#797979" stroke="none" />
</svg>