<?xml version="1.0" encoding="utf-8"?>
<svg version="1.1" xmlns:xlink="http://www.w3.org/1999/xlink" width="12px" height="12px" viewBox="313 318.5  12 12" xmlns="http://www.w3.org/2000/svg">
  <path d="M 319 318.5  C 322.36 318.5  325 321.14  325 324.5  C 325 327.86  322.36 330.5  319 330.5  C 315.64 330.5  313 327.86  313 324.5  C 313 321.14  315.64 318.5  319 318.5  Z " fill-rule="nonzero" fill="#ffffff" stroke="none" />
  <path d="M 319 319  C 322.08 319  324.5 321.42  324.5 324.5  C 324.5 327.58  322.08 330  319 330  C 315.92 330  313.5 327.58  313.5 324.5  C 313.5 321.42  315.92 319  319 319  Z " stroke-width="1" stroke="#797979" fill="none" />
  <path d="M 319 327.5  C 317.32 327.5  316 326.18  316 324.5  C 316 322.82  317.32 321.5  319 321.5  C 320.68 321.5  322 322.82  322 324.5  C 322 326.18  320.68 327.5  319 327.5  " fill-rule="nonzero" fill="#797979" stroke="none" />
</svg>