<?xml version="1.0" encoding="utf-8"?>
<svg version="1.1" xmlns:xlink="http://www.w3.org/1999/xlink" width="12px" height="12px" viewBox="313 358.5  12 12" xmlns="http://www.w3.org/2000/svg">
  <path d="M 319 358.5  C 322.36 358.5  325 361.14  325 364.5  C 325 367.86  322.36 370.5  319 370.5  C 315.64 370.5  313 367.86  313 364.5  C 313 361.14  315.64 358.5  319 358.5  Z " fill-rule="nonzero" fill="#ffffff" stroke="none" />
  <path d="M 319 359  C 322.08 359  324.5 361.42  324.5 364.5  C 324.5 367.58  322.08 370  319 370  C 315.92 370  313.5 367.58  313.5 364.5  C 313.5 361.42  315.92 359  319 359  Z " stroke-width="1" stroke="#797979" fill="none" />
  <path d="M 319 367.5  C 317.32 367.5  316 366.18  316 364.5  C 316 362.82  317.32 361.5  319 361.5  C 320.68 361.5  322 362.82  322 364.5  C 322 366.18  320.68 367.5  319 367.5  " fill-rule="nonzero" fill="#797979" stroke="none" />
</svg>