<?xml version="1.0" encoding="utf-8"?>
<svg version="1.1" xmlns:xlink="http://www.w3.org/1999/xlink" width="12px" height="12px" viewBox="204 358.5  12 12" xmlns="http://www.w3.org/2000/svg">
  <path d="M 210 358.5  C 213.36 358.5  216 361.14  216 364.5  C 216 367.86  213.36 370.5  210 370.5  C 206.64 370.5  204 367.86  204 364.5  C 204 361.14  206.64 358.5  210 358.5  Z " fill-rule="nonzero" fill="#f0f0f0" stroke="none" />
  <path d="M 210 359  C 213.08 359  215.5 361.42  215.5 364.5  C 215.5 367.58  213.08 370  210 370  C 206.92 370  204.5 367.58  204.5 364.5  C 204.5 361.42  206.92 359  210 359  Z " stroke-width="1" stroke="#797979" fill="none" />
  <path d="M 210 367.5  C 208.32 367.5  207 366.18  207 364.5  C 207 362.82  208.32 361.5  210 361.5  C 211.68 361.5  213 362.82  213 364.5  C 213 366.18  211.68 367.5  210 367.5  " fill-rule="nonzero" fill="#797979" stroke="none" />
</svg>