<?xml version="1.0" encoding="utf-8"?>
<svg version="1.1" xmlns:xlink="http://www.w3.org/1999/xlink" width="12px" height="12px" viewBox="204 404.5  12 12" xmlns="http://www.w3.org/2000/svg">
  <path d="M 210 404.5  C 213.36 404.5  216 407.14  216 410.5  C 216 413.86  213.36 416.5  210 416.5  C 206.64 416.5  204 413.86  204 410.5  C 204 407.14  206.64 404.5  210 404.5  Z " fill-rule="nonzero" fill="#ffffff" stroke="none" />
  <path d="M 210 405  C 213.08 405  215.5 407.42  215.5 410.5  C 215.5 413.58  213.08 416  210 416  C 206.92 416  204.5 413.58  204.5 410.5  C 204.5 407.42  206.92 405  210 405  Z " stroke-width="1" stroke="#797979" fill="none" />
  <path d="M 210 413.5  C 208.32 413.5  207 412.18  207 410.5  C 207 408.82  208.32 407.5  210 407.5  C 211.68 407.5  213 408.82  213 410.5  C 213 412.18  211.68 413.5  210 413.5  " fill-rule="nonzero" fill="#797979" stroke="none" />
</svg>