<?xml version="1.0" encoding="utf-8"?>
<svg version="1.1" xmlns:xlink="http://www.w3.org/1999/xlink" width="12px" height="12px" viewBox="313 404.5  12 12" xmlns="http://www.w3.org/2000/svg">
  <path d="M 319 404.5  C 322.36 404.5  325 407.14  325 410.5  C 325 413.86  322.36 416.5  319 416.5  C 315.64 416.5  313 413.86  313 410.5  C 313 407.14  315.64 404.5  319 404.5  Z " fill-rule="nonzero" fill="#f0f0f0" stroke="none" />
  <path d="M 319 405  C 322.08 405  324.5 407.42  324.5 410.5  C 324.5 413.58  322.08 416  319 416  C 315.92 416  313.5 413.58  313.5 410.5  C 313.5 407.42  315.92 405  319 405  Z " stroke-width="1" stroke="#797979" fill="none" />
  <path d="M 319 413.5  C 317.32 413.5  316 412.18  316 410.5  C 316 408.82  317.32 407.5  319 407.5  C 320.68 407.5  322 408.82  322 410.5  C 322 412.18  320.68 413.5  319 413.5  " fill-rule="nonzero" fill="#797979" stroke="none" />
</svg>